<?xml version="1.0" encoding="utf-8"?>
<!-- Generator: Adobe Illustrator 15.0.2, SVG Export Plug-In . SVG Version: 6.00 Build 0)  -->
<!DOCTYPE svg PUBLIC "-//W3C//DTD SVG 1.1//EN" "http://www.w3.org/Graphics/SVG/1.1/DTD/svg11.dtd">
<svg version="1.1" id="Layer_1" xmlns="http://www.w3.org/2000/svg" xmlns:xlink="http://www.w3.org/1999/xlink" x="0px" y="0px"
	 width="277.879px" height="243.004px" viewBox="0 0 277.879 243.004" enable-background="new 0 0 277.879 243.004"
	 xml:space="preserve">
<g>
	
		<radialGradient id="SVGID_1_" cx="1497.6646" cy="362.6201" r="191.7975" gradientTransform="matrix(-0.4151 0 0 0.4203 778.5222 4.068)" gradientUnits="userSpaceOnUse">
		<stop  offset="0" style="stop-color:#FDE370"/>
		<stop  offset="0.5279" style="stop-color:#FBB90B"/>
		<stop  offset="1" style="stop-color:#FFA80B"/>
	</radialGradient>
	<path fill="url(#SVGID_1_)" d="M75.925,156.478c0-21.862,7.892-40.555,23.721-56.033c15.785-15.478,34.834-23.24,57.195-23.24
		c22.362,0,41.412,7.762,57.241,23.24c15.784,15.479,23.677,34.171,23.677,56.033c0,21.908-7.893,40.554-23.677,56.033
		c-15.829,15.477-34.879,23.239-57.241,23.239c-22.361,0-41.41-7.763-57.195-23.239C83.817,197.031,75.925,178.386,75.925,156.478
		L75.925,156.478z"/>
	
		<radialGradient id="SVGID_2_" cx="548.1196" cy="112.2983" r="61.0121" gradientTransform="matrix(-0.9876 0 0 1 697.601 0)" gradientUnits="userSpaceOnUse">
		<stop  offset="0" style="stop-color:#FDE370"/>
		<stop  offset="0.5239" style="stop-color:#FBB90B"/>
		<stop  offset="1" style="stop-color:#FBAB0B"/>
	</radialGradient>
	<path fill="url(#SVGID_2_)" d="M78.242,139.591c0,22.49,37.19-13.668,75.325-13.668s80.748,35.337,80.748,12.848
		S198.79,75.503,155.85,77.723C106.488,80.274,78.242,117.102,78.242,139.591z"/>
	<path fill="#020100" d="M113.508,96.961c2.442-3.519,4.575-6.077,6.577-7.86c5.665-4.366,10.241-4.869,13.122-1.875
		c0.617,0.566,0.952,1.274,1.025,2.164c0.021,0.244-0.058,0.488-0.223,0.673c-0.161,0.185-0.39,0.294-0.633,0.304
		c-0.786,0.027-2.268,0.243-4.318,0.541l-1.69,0.245c-2.727,0.403-5.466,1.641-8.144,3.676c-1.245,0.946-2.23,1.686-2.956,2.23
		c-0.815,0.609-1.292,0.96-1.425,1.084c-0.18,0.166-0.411,0.245-0.642,0.236c-0.195-0.009-0.392-0.083-0.549-0.225
		C113.312,97.852,113.247,97.338,113.508,96.961z"/>
	<path fill="#F2A711" d="M142.812,191.688c0,1.195,4.9,4.266,10.707,4.266c5.804,0,10.318-3.07,10.318-4.266
		c0-1.198-4.539,0.44-10.343,0.44C147.687,192.129,142.812,190.49,142.812,191.688z"/>
	
		<linearGradient id="SVGID_3_" gradientUnits="userSpaceOnUse" x1="152.7769" y1="219.5713" x2="150.3264" y2="262.8634" gradientTransform="matrix(0.9531 -0.3026 0.3026 0.9531 -53.4258 26.5369)">
		<stop  offset="0" style="stop-color:#FCD657"/>
		<stop  offset="0.2115" style="stop-color:#FB9F42"/>
		<stop  offset="0.5288" style="stop-color:#FB5325"/>
		<stop  offset="0.7558" style="stop-color:#FA2312"/>
		<stop  offset="0.8683" style="stop-color:#FA110B"/>
	</linearGradient>
	<path fill="url(#SVGID_3_)" d="M149.464,218.655c0.423,1.331,8.67,2.477,17.157-0.219c8.483-2.694,13.995-8.208,13.572-9.539
		c-0.424-1.334-6.479,2.597-14.962,5.291C156.745,216.883,149.041,217.321,149.464,218.655z"/>
	
		<linearGradient id="SVGID_4_" gradientUnits="userSpaceOnUse" x1="551.6792" y1="181.8066" x2="552.0063" y2="191.9433" gradientTransform="matrix(-0.9876 0 0 1 697.601 0)">
		<stop  offset="0" style="stop-color:#FCD657"/>
		<stop  offset="0.2769" style="stop-color:#FBC642"/>
		<stop  offset="0.8447" style="stop-color:#FA9E0D"/>
		<stop  offset="0.8683" style="stop-color:#FA9C0B"/>
	</linearGradient>
	<path fill="url(#SVGID_4_)" d="M177.902,185.103c0,0-31.833-5.804-50.503,0.523C127.399,185.626,152.717,199.124,177.902,185.103z"
		/>
	
		<linearGradient id="SVGID_5_" gradientUnits="userSpaceOnUse" x1="548.7837" y1="219.7783" x2="549.1107" y2="229.9094" gradientTransform="matrix(-0.9798 0.1239 0.1254 0.9921 669.6324 -79.5713)">
		<stop  offset="0" style="stop-color:#FCD657"/>
		<stop  offset="0.1205" style="stop-color:#FCC14F"/>
		<stop  offset="0.369" style="stop-color:#FB8C3A"/>
		<stop  offset="0.721" style="stop-color:#FA371A"/>
		<stop  offset="0.8683" style="stop-color:#FA110B"/>
	</linearGradient>
	<path fill="url(#SVGID_5_)" d="M183.816,206.711c0,0-31.009-1.931-47.975,6.592C135.841,213.303,161.617,223.649,183.816,206.711z"
		/>
	<path fill="#CC6600" d="M99.294,100.076c15.824-15.517,35.187-23.385,57.547-23.385c22.346,0,41.724,7.868,57.593,23.385
		c15.812,15.506,23.83,34.482,23.83,56.401c0,21.918-8.018,40.895-23.831,56.401c-15.87,15.518-35.246,23.385-57.592,23.385
		c-22.36,0-41.722-7.868-57.547-23.385c-15.842-15.491-23.876-34.469-23.876-56.401C75.418,134.543,83.452,115.567,99.294,100.076z
		 M99.999,212.142c15.63,15.326,34.755,23.096,56.843,23.096c22.074,0,41.214-7.77,56.888-23.096
		c15.608-15.306,23.522-34.034,23.522-55.664c0-21.631-7.914-40.359-23.521-55.665c-15.674-15.325-34.814-23.096-56.889-23.096
		c-22.089,0-41.215,7.77-56.843,23.095c0,0,0,0,0,0c-15.639,15.291-23.567,34.019-23.567,55.665
		C76.432,178.122,84.36,196.851,99.999,212.142z"/>
	<path fill="#FBB90B" d="M122.252,177.265l0.056-0.057l0.165,0.112c-0.055,0-0.165,0-0.221,0V177.265L122.252,177.265z"/>
	<g>
		
			<radialGradient id="SVGID_6_" cx="1422.188" cy="287.7715" r="52.7669" gradientTransform="matrix(-0.4667 0 0 0.532 782.9152 -16.7828)" gradientUnits="userSpaceOnUse">
			<stop  offset="0" style="stop-color:#FDE370"/>
			<stop  offset="0.897" style="stop-color:#FBB90B"/>
			<stop  offset="1" style="stop-color:#ED990B"/>
		</radialGradient>
		<path fill="url(#SVGID_6_)" d="M103.031,130.071c3.252-7.009,26.643-17.157,26.573-22.95c-0.051-4.303-55.038-3.195-35.375,49.096
			c1.373,3.652,5.43,10.154,9.774,10.855C104.002,167.073,99.841,136.949,103.031,130.071z"/>
		
			<radialGradient id="SVGID_7_" cx="1157.2456" cy="294.6787" r="54.0932" gradientTransform="matrix(-0.5199 0 0 0.5114 789.0492 -15.5394)" gradientUnits="userSpaceOnUse">
			<stop  offset="0" style="stop-color:#FDE370"/>
			<stop  offset="0.897" style="stop-color:#FBB90B"/>
			<stop  offset="1" style="stop-color:#ED990B"/>
		</radialGradient>
		<path fill="url(#SVGID_7_)" d="M205.288,162.871c2.813,4.853,9.145-0.934,10.517,1.401c0,0,4.69-2.386,8.003-13.539
			c3.664-12.335,0.395-29.781-12.575-41.552c-6.174-5.603-22.635-12.606-36.353-3.969
			C174.879,105.211,194.256,143.846,205.288,162.871z"/>
		
			<radialGradient id="SVGID_8_" cx="1295.6235" cy="324.748" r="69.1029" gradientTransform="matrix(-0.4598 0 0 0.4695 781.5101 -7.8861)" gradientUnits="userSpaceOnUse">
			<stop  offset="0" style="stop-color:#FDE370"/>
			<stop  offset="0.897" style="stop-color:#FBB90B"/>
			<stop  offset="1" style="stop-color:#ED990B"/>
		</radialGradient>
		<path fill="url(#SVGID_8_)" d="M154.073,144.312c0.637,20.167,12.841,38.692,24.521,38.692c2.67,0,3.678-3.704,5.659-5.427
			c6.687-5.819,11.66-17.932,11.66-33.499c0-20.177-5.981-39.685-17.662-39.685C166.572,104.394,153.388,122.603,154.073,144.312z"
			/>
		
			<radialGradient id="SVGID_9_" cx="1294.4321" cy="322.5537" r="74.1195" gradientTransform="matrix(-0.4598 0 0 0.4695 781.5101 -7.8861)" gradientUnits="userSpaceOnUse">
			<stop  offset="0.6287" style="stop-color:#FFFFFF"/>
			<stop  offset="0.6933" style="stop-color:#FAFDFF"/>
			<stop  offset="0.7682" style="stop-color:#ECF9FF"/>
			<stop  offset="0.8483" style="stop-color:#D5F1FF"/>
			<stop  offset="0.9314" style="stop-color:#B4E6FF"/>
			<stop  offset="1" style="stop-color:#94DBFF"/>
		</radialGradient>
		<path fill="url(#SVGID_9_)" d="M216.779,144.1v0.063c0.062,3.574-0.123,6.897-0.553,10.094c-0.92,5.33-1.132,9.501-3.594,9.927
			c-10.632,1.838-20.129,8.731-31.552,17.509c-14.247-3.449-20.798-12.325-24.607-29.629c-0.183-1.066-0.306-2.069-0.368-3.135
			c-0.552-6.082-0.122-11.913,1.167-17.494c3.009-13.981,10.194-22.697,21.616-26.02c20.327,5.078,32.977,17.619,37.89,37.557
			C216.779,143.347,216.779,143.724,216.779,144.1L216.779,144.1z"/>
		
			<radialGradient id="SVGID_10_" cx="1284.9429" cy="327.8955" r="39.078" gradientTransform="matrix(-0.4598 0 0 0.4695 781.5101 -7.8861)" gradientUnits="userSpaceOnUse">
			<stop  offset="0.3772" style="stop-color:#D1FAFF"/>
			<stop  offset="0.3904" style="stop-color:#CCF8FF"/>
			<stop  offset="0.4064" style="stop-color:#BDF1FF"/>
			<stop  offset="0.4238" style="stop-color:#A4E7FF"/>
			<stop  offset="0.4422" style="stop-color:#82D8FF"/>
			<stop  offset="0.4551" style="stop-color:#66CCFF"/>
			<stop  offset="0.6188" style="stop-color:#65CAFE"/>
			<stop  offset="0.7068" style="stop-color:#61C2FA"/>
			<stop  offset="0.7768" style="stop-color:#59B4F2"/>
			<stop  offset="0.8374" style="stop-color:#4FA1E8"/>
			<stop  offset="0.8917" style="stop-color:#4288DB"/>
			<stop  offset="0.9411" style="stop-color:#326ACB"/>
			<stop  offset="0.9461" style="stop-color:#3066C9"/>
		</radialGradient>
		<path fill="url(#SVGID_10_)" d="M190.693,125.433c4.236,0,7.922,2.007,10.931,6.02c3.009,4.075,4.483,8.904,4.483,14.609
			c0,0.376,0,0.753-0.062,1.129c0,0.313,0,0.689-0.062,1.066c-0.307,4.765-1.78,8.903-4.36,12.353
			c-3.009,4.075-6.694,6.081-10.931,6.081c-4.237,0-7.86-2.006-10.87-6.081c-2.641-3.45-4.114-7.587-4.482-12.353
			c0-0.376,0-0.753-0.061-1.066c0-0.376,0-0.752,0-1.129c0-5.705,1.534-10.534,4.543-14.609
			C182.833,127.439,186.456,125.433,190.693,125.433L190.693,125.433z"/>
		<path fill="#6CCFE5" d="M185.167,105.678c-2.91-1.169-5.619-0.456-8.459,0.934c0,0,36.01,5.485,38.582,51.707
			C215.291,158.319,226.436,122.252,185.167,105.678z"/>
		
			<radialGradient id="SVGID_11_" cx="1440.5405" cy="303.2959" r="64.4123" gradientTransform="matrix(-0.4598 0 0 0.4695 781.5101 -7.8861)" gradientUnits="userSpaceOnUse">
			<stop  offset="0" style="stop-color:#FDE370"/>
			<stop  offset="0.897" style="stop-color:#FBB90B"/>
			<stop  offset="1" style="stop-color:#ED990B"/>
		</radialGradient>
		<path fill="url(#SVGID_11_)" d="M100.8,142.095c0,19.338,10.493,33.321,22.292,35.015c11.776,1.693,26.18-15.911,26.18-35.249
			c0-19.34-10.838-35.191-23.15-35.191C113.812,106.67,100.8,122.755,100.8,142.095z"/>
		
			<radialGradient id="SVGID_12_" cx="1435.479" cy="319.1895" r="65.8727" gradientTransform="matrix(-0.4598 0 0 0.4695 781.5101 -7.8861)" gradientUnits="userSpaceOnUse">
			<stop  offset="0.7006" style="stop-color:#FFFFFF"/>
			<stop  offset="0.7497" style="stop-color:#F5FCFF"/>
			<stop  offset="0.8327" style="stop-color:#DBF3FF"/>
			<stop  offset="0.9389" style="stop-color:#B0E4FF"/>
			<stop  offset="1" style="stop-color:#94DBFF"/>
		</radialGradient>
		<path fill="url(#SVGID_12_)" d="M95.495,136.45c2.273-7.211,6.019-13.606,11.3-19.124c7.062-6.646,14.861-9.907,23.397-9.844
			c8.045,4.954,13.695,12.791,16.827,23.512c0.552,2.822,0.797,5.832,0.797,8.967c0,8.84-2.026,16.553-6.079,23.074
			c-0.43,0.814-0.92,1.629-1.474,2.444c-5.036,7.587-11.36,11.223-18.977,10.972l-0.183-0.125l-0.062,0.063v0.062
			c-0.981-0.062-1.965-0.125-3.008-0.312c-2.027-1.693-3.992-3.136-5.773-4.39c-0.676-0.5-1.29-0.94-1.965-1.38
			c-3.132-2.068-5.834-3.448-8.229-4.263C96.416,159.084,94.204,149.178,95.495,136.45L95.495,136.45z"/>
		
			<radialGradient id="SVGID_13_" cx="1426.7241" cy="326.7529" r="37.6806" gradientTransform="matrix(-0.4598 0 0 0.4695 781.5101 -7.8861)" gradientUnits="userSpaceOnUse">
			<stop  offset="0.3772" style="stop-color:#D1FAFF"/>
			<stop  offset="0.3904" style="stop-color:#CCF8FF"/>
			<stop  offset="0.4064" style="stop-color:#BDF1FF"/>
			<stop  offset="0.4238" style="stop-color:#A4E7FF"/>
			<stop  offset="0.4422" style="stop-color:#82D8FF"/>
			<stop  offset="0.4551" style="stop-color:#66CCFF"/>
			<stop  offset="0.6188" style="stop-color:#65CAFE"/>
			<stop  offset="0.7068" style="stop-color:#61C2FA"/>
			<stop  offset="0.7768" style="stop-color:#59B4F2"/>
			<stop  offset="0.8374" style="stop-color:#4FA1E8"/>
			<stop  offset="0.8917" style="stop-color:#4288DB"/>
			<stop  offset="0.9411" style="stop-color:#326ACB"/>
			<stop  offset="0.9461" style="stop-color:#3066C9"/>
		</radialGradient>
		<path fill="url(#SVGID_13_)" d="M114.101,131.059c2.827-3.951,6.266-5.894,10.257-5.894c3.992,0,7.431,1.943,10.318,5.894
			c2.824,3.95,4.236,8.652,4.236,14.232c0,0.564,0,1.191-0.061,1.755c-0.061,0.564-0.124,1.191-0.185,1.755
			c-0.43,4.076-1.78,7.65-3.991,10.722c-2.887,3.95-6.326,5.894-10.318,5.894c-3.991,0-7.43-1.943-10.257-5.894
			c-2.27-3.072-3.622-6.646-4.114-10.722c-0.06-0.564-0.06-1.191-0.121-1.755c-0.062-0.564-0.062-1.191-0.062-1.755
			C109.804,139.711,111.216,135.008,114.101,131.059L114.101,131.059z"/>
		<path fill="#6CCFE5" d="M128.01,107.02c1.264-0.013,1.893,1.299,3.258,1.401c0,0-28.979,4.552-36.182,34.491
			C95.086,142.912,96.722,107.353,128.01,107.02z"/>
		<path fill="#03374C" d="M113.41,130.542c2.967-4.149,6.651-6.253,10.948-6.253c4.274,0,7.977,2.104,11.01,6.253
			c2.961,4.142,4.401,8.967,4.401,14.749c0,0.581,0,1.239-0.066,1.852l-0.185,1.753c-0.441,4.179-1.839,7.931-4.156,11.152
			c-3.028,4.145-6.732,6.245-11.005,6.245c-4.297,0-7.978-2.101-10.941-6.243c-2.328-3.15-3.769-6.902-4.281-11.154
			c-0.032-0.295-0.048-0.606-0.067-0.977c-0.014-0.263-0.027-0.526-0.055-0.777c-0.067-0.612-0.067-1.27-0.067-1.852
			C108.946,139.478,110.406,134.653,113.41,130.542z M110.717,146.95c0.032,0.302,0.049,0.62,0.066,0.939
			c0.014,0.278,0.029,0.555,0.055,0.806c0.474,3.933,1.804,7.401,3.955,10.311c2.629,3.674,5.847,5.536,9.565,5.536
			c3.756,0,6.906-1.811,9.628-5.537c2.133-2.964,3.42-6.429,3.829-10.297l0.185-1.757c0.055-0.521,0.055-1.126,0.055-1.66
			c0-5.398-1.331-9.883-4.066-13.71c-2.725-3.728-5.875-5.542-9.631-5.542c-3.719,0-6.938,1.864-9.569,5.542
			c-2.777,3.802-4.127,8.287-4.127,13.71C110.661,145.825,110.661,146.43,110.717,146.95z"/>
		<path fill="#03374C" d="M190.693,124.557c4.539,0,8.447,2.142,11.615,6.369c3.133,4.243,4.656,9.194,4.656,15.136
			c0,0.408,0,0.829-0.062,1.129c0,0.34,0,0.762-0.063,1.123c-0.315,4.911-1.84,9.225-4.53,12.822
			c-3.15,4.266-7.059,6.43-11.615,6.43c-4.516,0-8.4-2.16-11.545-6.418c-2.711-3.54-4.279-7.873-4.665-12.891
			c0-0.327,0.001-0.664-0.062-1.066v-1.129c0-5.804,1.588-10.898,4.721-15.141C182.31,126.698,186.196,124.557,190.693,124.557z
			 M176.12,147.018c0.081,0.414,0.078,0.877,0.075,1.168c0.357,4.622,1.809,8.624,4.312,11.895
			c2.849,3.857,6.181,5.733,10.186,5.733c3.99,0,7.438-1.93,10.25-5.738c2.482-3.32,3.894-7.339,4.194-11.964
			c0.045-0.271,0.05-0.542,0.056-0.848l0.007-0.22c0.051-0.31,0.05-0.637,0.05-0.984c0-5.548-1.408-10.152-4.307-14.077
			c-2.824-3.767-6.273-5.676-10.25-5.676c-3.991,0-7.323,1.855-10.186,5.67c-2.941,3.984-4.371,8.591-4.371,14.085L176.12,147.018z"
			/>
		<path fill="#914800" d="M181.081,181.692c-13.908-3.367-20.215-12.863-23.937-29.782c-0.182-1.058-0.295-2.029-0.353-3.023
			c-0.534-5.875-0.146-11.685,1.15-17.292c2.949-13.707,10.061-22.286,21.137-25.508c0.364-0.106,0.574-0.493,0.471-0.865
			c-0.104-0.371-0.483-0.587-0.848-0.48c-11.599,3.374-19.033,12.305-22.097,26.542c-1.327,5.745-1.725,11.706-1.18,17.708
			c0.059,1.027,0.179,2.048,0.376,3.192c3.854,17.519,9.62,26.883,24.081,30.383L181.081,181.692z M122.029,177.166
			c7.496,0,13.827-3.795,18.802-11.292c0.556-0.819,1.065-1.663,1.509-2.505c4.08-6.562,6.162-14.451,6.162-23.406
			c0-3.29-0.273-6.352-0.812-9.104c-3.173-10.876-8.936-18.921-17.145-23.975c-0.322-0.197-0.746-0.092-0.941,0.238
			c-0.195,0.332-0.091,0.762,0.233,0.961c7.907,4.869,13.467,12.645,16.524,23.113c0.504,2.598,0.769,5.569,0.769,8.766
			c0,8.685-2.01,16.322-5.972,22.7c-0.445,0.837-0.927,1.637-1.459,2.419c-4.93,7.429-10.918,10.917-18.391,10.671h-0.267
			c-0.85-0.054-1.862-0.117-2.89-0.302c-0.366-0.06-0.729,0.186-0.794,0.568c-0.065,0.381,0.185,0.744,0.556,0.811
			c1.105,0.198,2.157,0.264,3.086,0.322l0.287,0.001C121.535,177.161,121.783,177.166,122.029,177.166L122.029,177.166z
			 M213.318,164.621c2.654-3.613,2.65-4.837,3.584-10.243c0.441-3.289,0.625-6.626,0.562-10.228l0.001-1.179
			c0-0.387-0.308-0.701-0.687-0.701c-0.378,0-0.686,0.314-0.686,0.701v1.128c0.061,3.605-0.117,6.871-0.546,10.062
			c-0.892,5.161-1.076,6.849-3.601,10.284L213.318,164.621z M102.066,166.807c0.153,0,0.308-0.052,0.436-0.16
			c0.292-0.245,0.335-0.686,0.093-0.985c-5.521-6.865-7.681-16.669-6.418-29.141c0.039-0.384-0.234-0.729-0.611-0.768
			c-0.364-0.042-0.714,0.239-0.752,0.624c-1.304,12.856,0.959,23.008,6.723,30.174C101.671,166.72,101.867,166.807,102.066,166.807
			L102.066,166.807z"/>
		<path d="M120.55,153.254c-1.535-2.195-2.272-4.766-2.272-7.837c0-3.073,0.737-5.644,2.272-7.838
			c1.475-2.195,3.255-3.261,5.343-3.261c2.088,0,3.869,1.066,5.404,3.261c1.473,2.194,2.21,4.765,2.21,7.838
			c0,3.072-0.737,5.643-2.21,7.837c-1.535,2.194-3.315,3.26-5.404,3.26C123.805,156.515,122.025,155.448,120.55,153.254
			L120.55,153.254z"/>
		<path d="M191.061,133.333c2.396,0,4.422,1.128,6.141,3.448c1.658,2.32,2.518,5.142,2.518,8.465c0,3.324-0.859,6.083-2.518,8.402
			c-1.719,2.319-3.745,3.511-6.141,3.511s-4.421-1.191-6.08-3.511c-1.719-2.319-2.578-5.078-2.578-8.402
			c0-3.323,0.859-6.145,2.578-8.465C186.64,134.462,188.666,133.333,191.061,133.333L191.061,133.333z"/>
		<path fill="#FFFFFF" d="M182.464,155.278c-0.554-0.689-0.86-1.505-0.86-2.508c0-1.004,0.307-1.881,0.86-2.571
			c0.553-0.689,1.289-1.003,2.087-1.003s1.536,0.313,2.089,1.003c0.552,0.69,0.859,1.567,0.859,2.571
			c0,1.003-0.308,1.818-0.859,2.508c-0.553,0.689-1.291,1.065-2.089,1.065S183.017,155.967,182.464,155.278L182.464,155.278z"/>
		<path fill="#FFFFFF" d="M118.278,155.072c-0.614-0.815-0.921-1.755-0.921-2.883c0-1.129,0.307-2.069,0.921-2.884
			c0.552-0.815,1.289-1.192,2.088-1.192c0.797,0,1.534,0.376,2.149,1.192c0.554,0.815,0.86,1.755,0.86,2.884
			c0,1.128-0.307,2.068-0.86,2.883c-0.615,0.816-1.352,1.191-2.149,1.191C119.567,156.263,118.83,155.888,118.278,155.072
			L118.278,155.072z"/>
		<path d="M177.17,105.037c-0.184-0.062-0.431-0.125-0.676-0.188c-1.044-0.188-2.088-0.376-3.132-0.564
			c-1.781-0.313-2.765-0.438-2.948-0.376c0.676-0.438,2.149-0.627,4.483-0.564c1.228,0.062,2.395,0.125,3.562,0.25
			c10.562,0.877,18.976,4.201,25.301,10.033c1.72-1.066,2.886-2.383,3.501-4.077c0.736-1.944,0.675-4.388-0.245-7.272
			c2.148,3.197,2.885,6.145,2.271,8.904c-0.429,1.755-1.411,3.447-2.947,5.015c1.536,1.819,2.947,3.763,4.237,5.895
			c2.027-1.067,3.746-2.384,5.035-3.95c2.211-2.571,3.501-5.706,3.869-9.468c0.921,4.829,0.185,8.903-2.211,12.226
			c-1.228,1.694-2.886,3.199-4.974,4.516c0.798,1.692,1.535,3.448,2.149,5.392c2.088,0.126,3.991,0.062,5.772-0.125
			c6.079-0.878,10.623-3.887,13.51-9.091c-1.842,8.088-6.264,12.666-13.265,13.731c-1.351,0.188-2.764,0.251-4.298,0.188
			l-0.369,0.125c0.307,1.066,0.553,2.132,0.737,3.26c0.122,1.316,0.184,2.696,0.245,4.076c-4.913-19.938-17.562-32.479-37.89-37.557
			c-0.552-0.125-1.043-0.251-1.597-0.377H177.17L177.17,105.037z"/>
		<path fill="none" d="M216.779,143.321c0.017,0,0.033-0.001,0.05-0.004c0.175-0.026,0.301-0.183,0.293-0.361
			c-0.061-1.361-0.123-2.768-0.247-4.092c-0.166-1.02-0.381-1.999-0.657-3.002l0.056-0.02c1.43,0.085,2.855,0.019,4.237-0.173
			c7.125-1.085,11.683-5.794,13.552-13.999c0.038-0.169-0.051-0.342-0.21-0.406c-0.16-0.064-0.338,0.002-0.423,0.154
			c-2.801,5.051-7.262,8.051-13.259,8.917c-1.817,0.19-3.613,0.236-5.472,0.136c-0.512-1.581-1.14-3.159-1.961-4.925
			c1.995-1.296,3.611-2.788,4.808-4.438c2.443-3.39,3.208-7.596,2.272-12.501c-0.033-0.17-0.189-0.307-0.353-0.282
			c-0.17,0.008-0.309,0.142-0.325,0.314c-0.362,3.698-1.601,6.731-3.786,9.272c-1.171,1.424-2.734,2.672-4.654,3.72
			c-1.168-1.899-2.445-3.678-3.896-5.418c1.441-1.536,2.388-3.198,2.815-4.946c0.646-2.9-0.114-5.902-2.321-9.187
			c-0.097-0.146-0.282-0.193-0.435-0.116c-0.153,0.077-0.227,0.257-0.175,0.423c0.887,2.774,0.971,5.142,0.253,7.037
			c-0.55,1.515-1.579,2.748-3.144,3.767c-6.312-5.729-14.825-9.075-25.312-9.945c-1.142-0.123-2.294-0.186-3.572-0.251
			c-2.408-0.067-3.941,0.136-4.684,0.618c-0.146,0.095-0.2,0.286-0.126,0.446c0.073,0.159,0.254,0.234,0.417,0.182
			c0.056-0.01,0.471-0.018,2.782,0.388l3.131,0.564c0.259,0.068,0.468,0.122,0.627,0.176c0.057,0.019,0.114,0.022,0.168,0.013
			l1.585,0.374c20.107,5.024,32.771,17.574,37.632,37.301C216.486,143.214,216.624,143.321,216.779,143.321L216.779,143.321z
			 M216.179,135.16l-0.491,0.144c-0.175,0.059-0.272,0.25-0.22,0.43c0.313,1.091,0.552,2.144,0.727,3.219
			c0.025,0.268,0.048,0.542,0.068,0.818c-5.459-18.209-17.99-29.875-37.292-34.698l-1.604-0.379
			c-0.044-0.009-0.087-0.011-0.129-0.003c-0.167-0.054-0.376-0.108-0.589-0.163l-3.228-0.588c-0.418-0.074-0.778-0.134-1.088-0.184
			c0.686-0.067,1.537-0.09,2.556-0.061c1.259,0.063,2.401,0.126,3.534,0.248c10.446,0.868,18.892,4.214,25.107,9.944
			c0.113,0.104,0.278,0.118,0.408,0.04c1.823-1.13,3.016-2.522,3.644-4.253c0.562-1.482,0.674-3.216,0.338-5.174
			c1.162,2.332,1.5,4.509,1.031,6.605c-0.416,1.705-1.377,3.337-2.855,4.846c-0.126,0.13-0.134,0.337-0.017,0.476
			c1.582,1.875,2.958,3.788,4.206,5.85c0.095,0.156,0.292,0.209,0.447,0.127c2.131-1.12,3.86-2.479,5.142-4.037
			c1.771-2.06,2.974-4.518,3.584-7.327c0.297,3.727-0.527,6.966-2.464,9.653c-1.196,1.648-2.837,3.137-4.879,4.425
			c-0.149,0.094-0.205,0.288-0.128,0.449c0.913,1.938,1.591,3.637,2.132,5.347c0.043,0.138,0.165,0.233,0.306,0.243
			c1.979,0.119,3.887,0.078,5.828-0.126c5.42-0.783,9.627-3.243,12.548-7.324c-2.073,6.545-6.231,10.333-12.388,11.27
			C219.078,135.161,217.693,135.217,216.179,135.16L216.179,135.16z"/>
		<path d="M125.339,106.354c2.581-0.25,5.037-0.062,7.431,0.502c0.431,0.125,0.922,0.25,1.352,0.375l1.719,0.501l-2.64-0.126
			c-0.921-0.062-1.966-0.125-3.009-0.125c-8.536-0.063-16.334,3.197-23.397,9.844c-5.281,5.517-9.026,11.913-11.3,19.124
			c0.185-1.442,0.43-3.009,0.798-4.765c-6.877,0.062-12.588-3.323-17.132-10.095c5.526,4.828,11.484,6.96,17.931,6.521l1.659-4.326
			c-5.896-0.376-10.931-3.637-15.046-9.782c5.22,5.017,10.808,7.336,16.702,6.896c0.8-1.692,1.844-3.323,3.134-4.827
			c-4.79-1.568-8.106-5.832-10.011-12.854c2.641,6.208,6.632,9.844,12.038,10.973c3.867-3.073,7.798-5.205,11.729-6.333
			C119.875,107.106,122.578,106.604,125.339,106.354L125.339,106.354z"/>
		<path d="M95.495,136.8c0.146,0,0.28-0.095,0.327-0.242c2.266-7.189,6.04-13.577,11.217-18.986c6.865-6.46,14.579-9.74,22.916-9.74
			c1.089-0.003,2.193,0.055,3.223,0.125l2.647,0.125c0.173,0.028,0.325-0.116,0.355-0.292c0.027-0.175-0.078-0.344-0.246-0.393
			l-3.07-0.877c-2.529-0.597-4.997-0.764-7.557-0.514c-2.798,0.253-5.526,0.764-8.105,1.517c-3.904,1.12-7.846,3.237-11.719,6.293
			c-5.246-1.148-9.053-4.662-11.639-10.737c-0.072-0.168-0.259-0.251-0.428-0.19c-0.171,0.061-0.265,0.246-0.218,0.423
			c1.861,6.858,5.141,11.203,9.754,12.924c-1.092,1.333-2.02,2.786-2.767,4.327c-5.699,0.365-11.159-1.928-16.248-6.816
			c-0.127-0.122-0.324-0.126-0.457-0.011c-0.134,0.117-0.159,0.316-0.06,0.464c4.05,6.047,9.04,9.374,14.841,9.897l-1.49,3.885
			c-0.069,0.18,0.018,0.384,0.195,0.454c0.172,0.07,0.375-0.019,0.443-0.198l1.658-4.327c0.041-0.104,0.03-0.222-0.03-0.316
			c-0.059-0.094-0.158-0.155-0.268-0.162c-4.885-0.312-9.195-2.675-12.849-7.038c4.586,3.598,9.449,5.229,14.51,4.852
			c0.122-0.009,0.23-0.084,0.283-0.197c0.808-1.707,1.844-3.305,3.083-4.748c0.075-0.089,0.103-0.211,0.072-0.324
			c-0.03-0.113-0.116-0.204-0.226-0.239c-3.669-1.201-6.425-3.979-8.354-8.448c2.568,3.931,5.988,6.361,10.208,7.243
			c0.099,0.021,0.2-0.004,0.278-0.067c3.844-3.054,7.75-5.164,11.611-6.271c2.54-0.741,5.224-1.244,7.981-1.494
			c2.491-0.24,4.885-0.079,7.323,0.495l0.124,0.035c-0.921-0.059-1.91-0.1-2.865-0.1c-8.512,0-16.381,3.342-23.389,9.938
			c-4.411,4.606-7.812,9.9-10.153,15.784c0.069-0.367,0.142-0.731,0.218-1.096c0.041-0.188-0.078-0.375-0.262-0.415
			c-0.181-0.041-0.368,0.079-0.408,0.269c-0.326,1.555-0.589,3.122-0.804,4.792c-0.022,0.179,0.093,0.347,0.266,0.387
			C95.445,136.797,95.47,136.8,95.495,136.8L95.495,136.8z"/>
	</g>
	<path fill="#CC6600" d="M126.131,183.336c0.171,0,0.342-0.072,0.464-0.212c0.227-0.259,0.203-0.656-0.054-0.886
		c-2.351-2.098-4.577-4.012-6.616-5.686c-1.985-1.644-3.848-2.979-5.248-3.958c-0.609-0.447-1.173-0.848-1.794-1.249
		c-2.817-1.844-5.292-3.115-7.565-3.883c-3.585-1.187-6.336-0.814-8.179,1.115c-0.237,0.248-0.231,0.645,0.015,0.886
		c0.246,0.24,0.639,0.234,0.875-0.014c1.506-1.579,3.762-1.834,6.902-0.796c2.168,0.732,4.552,1.959,7.284,3.748
		c0.603,0.389,1.147,0.776,1.748,1.216c1.392,0.974,3.228,2.289,5.182,3.908c2.028,1.664,4.239,3.567,6.577,5.655
		C125.839,183.284,125.986,183.336,126.131,183.336L126.131,183.336z"/>
	<path fill="#CC6600" d="M182.379,183.015c0.138,0,0.277-0.048,0.394-0.144c0.651-0.545,1.331-1.062,1.999-1.569l1.321-1.031
		c0.315-0.257,0.621-0.508,0.952-0.73c10.215-7.785,18.455-12.449,24.52-13.888c5.354-1.286,8.986-0.485,11.111,2.454
		c0.203,0.279,0.59,0.34,0.865,0.136s0.336-0.596,0.134-0.875c-2.418-3.344-6.588-4.331-12.395-2.934
		c-6.231,1.478-14.626,6.218-24.951,14.085c-0.333,0.224-0.668,0.496-1.014,0.777l-1.287,1.003c-0.683,0.52-1.377,1.048-2.045,1.605
		c-0.264,0.221-0.3,0.615-0.083,0.883C182.023,182.936,182.201,183.015,182.379,183.015L182.379,183.015z"/>
	
		<radialGradient id="SVGID_14_" cx="1380.2251" cy="559.7383" r="54.0521" gradientTransform="matrix(-0.4151 0 0 0.2677 778.5222 33.4948)" gradientUnits="userSpaceOnUse">
		<stop  offset="0" style="stop-color:#FD5400"/>
		<stop  offset="1" style="stop-color:#FBB90B"/>
	</radialGradient>
	<path fill="url(#SVGID_14_)" d="M183.896,186.751c1.27,5.695,10.909-1.128,18.987,4.598c9.286,6.583,23.113,11.703,24.352-0.627
		c1.116-11.115-5.366-18.808-15.892-21.942C202.379,166.11,182.451,180.273,183.896,186.751z"/>
	
		<radialGradient id="SVGID_15_" cx="1578.1431" cy="855.9707" r="51.7988" gradientTransform="matrix(-0.4109 -0.0593 -0.0382 0.2714 786.0167 42.8541)" gradientUnits="userSpaceOnUse">
		<stop  offset="0" style="stop-color:#FD6A03"/>
		<stop  offset="1" style="stop-color:#FBB90B"/>
	</radialGradient>
	<path fill="url(#SVGID_15_)" d="M99.093,165.727c-10.321,1.986-16.556,12.104-14.71,22.763c2.372,13.694,12.812-1.021,22.896-2.402
		c10.322-1.413,15.599,1.307,16.727,0.481c4.27-3.124-6.94-10.932-17.973-18.14C105.086,167.812,100.102,165.533,99.093,165.727z"/>
	<path fill="#AA4F04" d="M152.675,217.618c12.392,0,24.738-5.344,36.799-15.948l9.287-7.865c2.068,1.018,3.328,2.257,3.745,3.685
		c0.128,0.433,0.492,0.649,0.818,0.48c0.324-0.171,0.484-0.661,0.358-1.095c-0.585-1.999-2.149-3.568-4.785-4.797
		c-0.008-0.006-0.015-0.01-0.022-0.013c-4.935-2.145-8.702-2.616-11.521-1.437c-0.333,0.139-0.519,0.612-0.414,1.058
		c0.105,0.443,0.458,0.689,0.792,0.553c2.281-0.952,5.458-0.651,9.455,0.898l-8.399,7.113
		c-14.174,12.459-28.719,17.538-43.241,15.075c-5.583-0.978-11.181-2.97-16.638-5.92c-10.007-4.991-15.507-11.731-16.799-20.589
		c0.694-0.052,1.457-0.095,2.255-0.095c2.695,0.223,3.509,0.33,3.751,0.376c0.166,0.104,0.363,0.104,0.541-0.008
		c0.258-0.168,0.404-0.558,0.348-0.934c-0.112-0.756-0.112-0.756-4.602-1.122c-1.148,0.017-2.184,0.076-3.068,0.152
		c-0.011,0-0.023,0.001-0.036,0.003H111.3c0,0-0.003,0.002-0.005,0.002c-3.206,0.485-5.586,1.904-7.078,4.221
		c-0.228,0.352-0.197,0.886,0.066,1.19c0.265,0.305,0.661,0.266,0.891-0.089c1.188-1.845,3.095-3.034,5.673-3.542
		c1.332,9.441,7.251,16.844,17.604,22.01c5.541,2.992,11.243,5.02,16.935,6.019C147.817,217.414,150.248,217.618,152.675,217.618
		L152.675,217.618z"/>
	
		<radialGradient id="SVGID_16_" cx="1628.4565" cy="402.9473" r="8.091" gradientTransform="matrix(-0.4151 0 0 0.4203 778.5222 4.068)" gradientUnits="userSpaceOnUse">
		<stop  offset="0" style="stop-color:#FDF58F"/>
		<stop  offset="1" style="stop-color:#FBB90B"/>
	</radialGradient>
	<ellipse fill="url(#SVGID_16_)" cx="102.538" cy="173.415" rx="3.508" ry="3.24"/>
	
		<radialGradient id="SVGID_17_" cx="1644.3784" cy="410.6475" r="4.9712" gradientTransform="matrix(-0.4151 0 0 0.4203 778.5222 4.068)" gradientUnits="userSpaceOnUse">
		<stop  offset="0" style="stop-color:#FDF58F"/>
		<stop  offset="1" style="stop-color:#FBB90B"/>
	</radialGradient>
	<ellipse fill="url(#SVGID_17_)" cx="95.934" cy="176.655" rx="2.064" ry="2.09"/>
	
		<radialGradient id="SVGID_18_" cx="1375.5688" cy="893.7627" r="9.8111" gradientTransform="matrix(-0.3235 -0.1438 -0.1668 0.3849 800.8413 26.499)" gradientUnits="userSpaceOnUse">
		<stop  offset="0" style="stop-color:#FDF58F"/>
		<stop  offset="1" style="stop-color:#FBB90B"/>
	</radialGradient>
	<path fill="url(#SVGID_18_)" d="M202.978,171.004c-0.688,1.585,0.447,3.623,2.535,4.55c2.088,0.928,4.337,0.396,5.023-1.19
		c0.688-1.585-0.447-3.622-2.535-4.55C205.914,168.886,203.665,169.419,202.978,171.004z"/>
	
		<radialGradient id="SVGID_19_" cx="1103.0259" cy="981.6338" r="6.4817" gradientTransform="matrix(-0.3653 -0.1996 -0.1971 0.3699 811.7925 34.1456)" gradientUnits="userSpaceOnUse">
		<stop  offset="0" style="stop-color:#FDF58F"/>
		<stop  offset="1" style="stop-color:#FBB90B"/>
	</radialGradient>
	<path fill="url(#SVGID_19_)" d="M212.831,175.683c-0.649,1.219-0.037,2.83,1.367,3.596c1.403,0.768,3.068,0.401,3.718-0.817
		c0.649-1.219,0.038-2.83-1.366-3.596C215.145,174.099,213.48,174.465,212.831,175.683z"/>
	<path fill="#020100" d="M196.499,98.413c-2.666-4.198-5.021-7.266-7.259-9.431c-6.368-5.334-11.649-6.137-15.13-2.802
		c-0.742,0.627-1.165,1.432-1.291,2.459c-0.035,0.283,0.045,0.569,0.227,0.792c0.179,0.223,0.438,0.359,0.721,0.383
		c0.91,0.069,2.618,0.39,4.982,0.833l1.949,0.366c3.143,0.598,6.263,2.164,9.272,4.654c1.399,1.157,2.508,2.062,3.323,2.728
		c0.917,0.746,1.451,1.175,1.603,1.326c0.201,0.202,0.466,0.304,0.733,0.305c0.229,0,0.458-0.079,0.647-0.235
		C196.685,99.456,196.784,98.864,196.499,98.413z"/>
</g>
<g>
	<path fill="#2AA4FF" d="M7.6,202.175c2.271-0.188,4.395-0.312,6.369-0.372c1.976-0.06,3.895-0.02,5.757,0.119
		c1.863,0.14,3.701,0.365,5.512,0.677c1.813,0.312,3.702,0.714,5.669,1.209c2.53-3.154,5.173-6.22,7.93-9.198
		c2.757-2.977,5.834-5.906,9.233-8.789c0.462-0.201,1.084,0.191,1.864,1.178c0.779,0.986,1.593,2.222,2.439,3.704
		c0.846,1.483,1.658,3.031,2.436,4.644c0.778,1.613,1.396,2.946,1.854,3.997c0.128,0.295,0.105,0.53-0.068,0.705
		c-2.127,1.778-4.231,3.671-6.31,5.677c-2.078,2.007-4.016,4.052-5.811,6.135c0.86-0.324,1.668-0.651,2.425-0.981
		c0.757-0.33,1.557-0.678,2.397-1.044c2.482-1.082,4.957-2.235,7.426-3.461c0.252-0.109,0.504-0.106,0.755,0.009
		c0.25,0.116,0.522,0.424,0.814,0.922c0.292,0.499,0.664,1.238,1.116,2.217c0.451,0.979,1.035,2.289,1.75,3.93
		c0.733,1.683,1.365,3.134,1.896,4.354c0.532,1.221,0.938,2.269,1.221,3.146c0.104,0.355,0.061,0.687-0.129,0.995
		c-0.192,0.309-0.669,0.704-1.435,1.188c-0.765,0.483-1.86,1.1-3.288,1.846c-1.426,0.746-3.311,1.705-5.653,2.876
		c-3.483,1.768-6.699,3.406-9.645,4.915s-5.674,2.885-8.186,4.129c-2.51,1.244-4.81,2.371-6.898,3.38
		c-2.086,1.011-4.035,1.908-5.844,2.697c-0.252,0.109-0.58-0.098-0.984-0.623c-0.403-0.524-0.93-1.445-1.58-2.765
		c-0.649-1.318-1.46-3.066-2.435-5.245c-0.973-2.178-2.148-4.845-3.522-7.999c-0.165-0.379-0.058-0.65,0.32-0.815
		c0.463-0.202,0.899-0.379,1.307-0.532c0.41-0.152,0.803-0.312,1.181-0.477c2.65-1.154,5.299-2.371,7.944-3.649
		c2.647-1.277,5.186-2.571,7.618-3.882c-3.349,0.009-6.85,0.07-10.504,0.186c-3.653,0.115-7.34,0.383-11.061,0.803
		c-0.271,0.068-0.479-0.066-0.626-0.403c-0.238-0.546-0.537-1.292-0.899-2.236c-0.361-0.942-0.744-1.965-1.148-3.065
		c-0.404-1.1-0.787-2.21-1.15-3.328c-0.362-1.118-0.672-2.146-0.931-3.085s-0.438-1.724-0.538-2.355
		c-0.1-0.632-0.065-0.984,0.102-1.058C6.628,202.298,7.064,202.209,7.6,202.175z"/>
	<path fill="#2AA4FF" d="M0.031,169.839c-0.162-3.253,0.303-6.159,1.393-8.717c1.091-2.558,2.625-4.724,4.604-6.5
		c1.979-1.775,4.322-3.166,7.028-4.174c2.707-1.006,5.596-1.587,8.665-1.74c3.346-0.167,6.62,0.096,9.824,0.787
		c3.204,0.691,6.085,1.823,8.645,3.395c2.559,1.573,4.646,3.571,6.258,5.994c1.613,2.424,2.503,5.309,2.67,8.653
		c0.155,3.117-0.313,5.965-1.401,8.545c-1.088,2.581-2.712,4.82-4.869,6.719c-2.156,1.899-4.814,3.421-7.973,4.565
		c-3.158,1.146-6.708,1.815-10.65,2.011c-3.345,0.166-6.451-0.149-9.315-0.949c-2.865-0.799-5.373-2.042-7.524-3.727
		s-3.874-3.769-5.169-6.254S0.193,173.094,0.031,169.839z M37.586,168.455c-0.066-1.329-0.955-2.364-2.669-3.106
		c-1.713-0.742-3.831-1.05-6.351-0.925c-2.337,0.116-3.958,0.531-4.865,1.241c-0.906,0.711-1.323,1.8-1.25,3.266
		c0.091,1.833,0.624,3.06,1.595,3.676c0.973,0.618,2.627,0.869,4.964,0.752c2.567-0.127,4.653-0.655,6.261-1.586
		C36.878,170.845,37.65,169.739,37.586,168.455z"/>
	<path fill="#2AA4FF" d="M47.694,114.541c3.111,0.972,5.838,1.954,8.18,2.946c0.296,0.131,0.274,1.353-0.066,3.664
		c-0.341,2.312-1.17,5.808-2.488,10.489c-0.335,1.192-0.706,2.507-1.109,3.942c-0.404,1.436-0.806,2.776-1.204,4.022
		c-0.398,1.246-0.772,2.274-1.118,3.082c-0.347,0.809-0.609,1.187-0.785,1.138c-1.973-0.27-4.411-0.67-7.312-1.201
		c-2.9-0.53-5.954-1.115-9.158-1.755c-3.204-0.639-6.41-1.315-9.618-2.028c-3.207-0.712-6.11-1.363-8.709-1.951
		c-2.599-0.588-4.758-1.089-6.477-1.501c-1.718-0.412-2.688-0.649-2.91-0.712c-0.22-0.062-0.322-0.507-0.303-1.336
		c0.019-0.828,0.122-1.872,0.309-3.13c0.188-1.258,0.438-2.653,0.75-4.186c0.312-1.532,0.626-3.029,0.942-4.49
		c0.316-1.459,0.623-2.803,0.92-4.031c0.298-1.227,0.54-2.172,0.727-2.834c0.112-0.397,0.345-0.546,0.698-0.447
		c4.544,1.47,8.959,2.843,13.247,4.122c4.288,1.279,8.529,2.508,12.725,3.689c1.59,0.447,3.191,0.898,4.803,1.352
		c1.613,0.454,3.219,0.882,4.822,1.286c0.157-0.385,0.293-0.787,0.411-1.207c0.118-0.419,0.239-0.85,0.364-1.292
		c0.597-2.12,0.978-3.729,1.144-4.826c0.166-1.098,0.317-1.888,0.454-2.375C47.042,114.572,47.297,114.429,47.694,114.541z"/>
	<path fill="#2AA4FF" d="M26.701,74.874c1.823-2.699,3.939-4.744,6.346-6.136c2.408-1.391,4.935-2.203,7.584-2.435
		c2.648-0.231,5.357,0.062,8.126,0.88c2.769,0.819,5.428,2.089,7.975,3.81c2.776,1.875,5.237,4.051,7.386,6.526
		c2.147,2.476,3.773,5.111,4.876,7.904c1.103,2.794,1.572,5.645,1.408,8.551c-0.165,2.907-1.184,5.749-3.059,8.523
		c-1.747,2.586-3.831,4.583-6.25,5.994c-2.419,1.411-5.062,2.228-7.927,2.452c-2.864,0.225-5.904-0.154-9.117-1.135
		c-3.213-0.979-6.455-2.575-9.725-4.784c-2.775-1.875-5.069-3.992-6.88-6.351c-1.812-2.358-3.072-4.858-3.781-7.497
		s-0.836-5.34-0.38-8.105C23.737,80.305,24.876,77.573,26.701,74.874z M57.569,96.309c0.745-1.102,0.655-2.464-0.271-4.086
		c-0.925-1.622-2.433-3.139-4.524-4.552c-1.939-1.31-3.485-1.952-4.636-1.928c-1.152,0.025-2.139,0.646-2.961,1.862
		c-1.027,1.521-1.337,2.821-0.931,3.898c0.407,1.078,1.58,2.271,3.519,3.582c2.129,1.439,4.115,2.269,5.959,2.49
		C55.568,97.795,56.849,97.374,57.569,96.309z"/>
	<path fill="#2AA4FF" d="M94.419,40.446c1.552,2.219,2.599,4.538,3.143,6.956c0.544,2.42,0.246,4.896-0.894,7.428
		c1.605-0.506,3.197-0.611,4.776-0.316c1.579,0.296,2.946,1.271,4.104,2.925c1.131,1.617,1.597,3.166,1.402,4.646
		c-0.197,1.481-0.745,2.858-1.646,4.132c-0.902,1.274-2.005,2.438-3.311,3.492c-1.308,1.054-2.524,1.975-3.652,2.764
		c-1.516,1.116-2.984,2.199-4.405,3.249c-1.422,1.05-2.921,2.127-4.5,3.232c-1.73,1.209-3.649,2.468-5.758,3.775
		c-1.118,0.725-2.051,0.931-2.803,0.616c-0.752-0.313-1.488-0.946-2.209-1.898c-1.68-2.24-3.614-4.766-5.802-7.575
		c-2.188-2.808-4.425-5.625-6.708-8.452c-2.284-2.825-4.512-5.55-6.684-8.175c-2.171-2.625-4.093-4.892-5.765-6.802
		c-0.71-1.015-1.154-1.81-1.333-2.386c-0.179-0.574-0.227-1.003-0.143-1.286c0.417-1.243,1.456-2.641,3.114-4.193
		c1.658-1.551,4.029-3.405,7.112-5.562c2.143-1.499,4.394-2.764,6.751-3.797c2.357-1.031,4.876-1.674,7.556-1.925
		c3.406-0.253,6.614,0.372,9.626,1.876C89.403,34.674,92.079,37.1,94.419,40.446z M88.217,54.274
		c-0.868-1.241-1.92-2.086-3.159-2.536c-1.238-0.449-2.516-0.214-3.831,0.706c-0.264,0.185-0.514,0.388-0.75,0.609
		c-0.237,0.222-0.448,0.481-0.632,0.778c0.86,1.47,1.764,2.923,2.713,4.359c0.948,1.437,1.923,2.869,2.922,4.298
		c0.176-0.067,0.434-0.22,0.772-0.457c0.564-0.395,1.076-0.864,1.534-1.409c0.459-0.544,0.814-1.157,1.066-1.837
		c0.251-0.68,0.347-1.404,0.286-2.173C89.076,55.844,88.769,55.063,88.217,54.274z M92.382,69.837
		c0.339-0.237,0.684-0.562,1.038-0.978c0.353-0.415,0.643-0.882,0.866-1.403c0.224-0.521,0.339-1.077,0.345-1.669
		s-0.188-1.17-0.583-1.734c-0.473-0.677-1.03-1.071-1.668-1.185c-0.639-0.112-1.294-0.088-1.965,0.073
		c-0.671,0.162-1.302,0.42-1.892,0.777c-0.59,0.357-1.092,0.68-1.506,0.969c0.65,1.17,1.356,2.299,2.119,3.39
		c0.315,0.451,0.625,0.894,0.927,1.325c0.303,0.433,0.617,0.843,0.944,1.23c0.214-0.094,0.422-0.197,0.624-0.31
		C91.831,70.21,92.081,70.048,92.382,69.837z"/>
	<path fill="#2AA4FF" d="M118.801,10.874c3.163-0.777,6.104-0.873,8.823-0.29c2.718,0.584,5.137,1.679,7.256,3.284
		c2.119,1.606,3.93,3.641,5.434,6.106c1.503,2.466,2.622,5.192,3.355,8.176c0.799,3.253,1.164,6.518,1.095,9.794
		c-0.07,3.277-0.633,6.321-1.69,9.132c-1.058,2.812-2.623,5.24-4.695,7.284c-2.074,2.044-4.736,3.467-7.988,4.266
		c-3.03,0.745-5.916,0.827-8.656,0.249c-2.741-0.578-5.248-1.746-7.522-3.502c-2.274-1.756-4.273-4.076-5.998-6.96
		c-1.725-2.883-3.057-6.241-3.999-10.073c-0.799-3.252-1.079-6.361-0.838-9.326c0.239-2.964,0.983-5.663,2.228-8.095
		c1.245-2.432,2.964-4.52,5.158-6.264C112.959,12.912,115.637,11.651,118.801,10.874z M127.299,47.481
		c1.292-0.317,2.14-1.387,2.542-3.211c0.403-1.823,0.303-3.96-0.299-6.411c-0.558-2.272-1.273-3.785-2.143-4.541
		c-0.871-0.754-2.019-0.957-3.445-0.606c-1.783,0.438-2.885,1.194-3.306,2.265c-0.422,1.072-0.354,2.744,0.205,5.017
		c0.613,2.496,1.528,4.444,2.747,5.845C124.818,47.241,126.051,47.788,127.299,47.481z"/>
	<path fill="#2AA4FF" d="M198.956,15.158c-1.021,2.037-2.021,3.914-2.998,5.632c-0.978,1.718-2.011,3.336-3.099,4.854
		c-1.089,1.518-2.238,2.969-3.447,4.354c-1.21,1.386-2.537,2.789-3.983,4.211c1.376,3.802,2.617,7.655,3.726,11.558
		c1.106,3.904,2.006,8.057,2.697,12.459c-0.068,0.5-0.728,0.826-1.976,0.979c-1.248,0.152-2.727,0.204-4.433,0.155
		c-1.707-0.05-3.451-0.162-5.233-0.338c-1.782-0.175-3.242-0.342-4.378-0.498c-0.318-0.044-0.507-0.186-0.566-0.425
		c-0.411-2.742-0.932-5.523-1.562-8.343c-0.632-2.819-1.37-5.538-2.214-8.155c-0.171,0.904-0.312,1.764-0.424,2.582
		c-0.113,0.818-0.231,1.682-0.356,2.591c-0.369,2.682-0.673,5.396-0.911,8.142c-0.038,0.272-0.172,0.485-0.401,0.64
		c-0.229,0.153-0.633,0.226-1.21,0.215c-0.579-0.01-1.403-0.078-2.474-0.201c-1.071-0.125-2.494-0.308-4.267-0.552
		c-1.818-0.25-3.386-0.466-4.704-0.647c-1.319-0.182-2.426-0.38-3.322-0.596c-0.358-0.096-0.618-0.305-0.782-0.628
		c-0.164-0.324-0.253-0.938-0.268-1.843c-0.015-0.905,0.03-2.16,0.136-3.767c0.104-1.606,0.268-3.715,0.487-6.324
		c0.303-3.895,0.579-7.493,0.825-10.794s0.491-6.347,0.736-9.139c0.245-2.791,0.479-5.341,0.705-7.649
		c0.224-2.307,0.472-4.439,0.74-6.394c0.038-0.273,0.385-0.444,1.044-0.517c0.658-0.071,1.718-0.042,3.183,0.09
		c1.463,0.132,3.379,0.35,5.746,0.651c2.366,0.303,5.255,0.688,8.664,1.157c0.409,0.056,0.585,0.289,0.529,0.698
		c-0.069,0.5-0.146,0.964-0.227,1.393c-0.083,0.429-0.151,0.848-0.208,1.256c-0.394,2.864-0.734,5.759-1.021,8.683
		c-0.287,2.925-0.504,5.766-0.651,8.525c1.737-2.863,3.507-5.885,5.312-9.065c1.803-3.179,3.494-6.467,5.072-9.862
		c0.083-0.267,0.306-0.375,0.67-0.325c0.591,0.081,1.383,0.214,2.377,0.396c0.993,0.184,2.065,0.389,3.216,0.616
		c1.149,0.228,2.296,0.479,3.439,0.751c1.144,0.273,2.184,0.543,3.119,0.811s1.699,0.523,2.291,0.767
		c0.592,0.244,0.875,0.457,0.851,0.638C199.356,14.264,199.206,14.683,198.956,15.158z"/>
	<path fill="#2AA4FF" d="M208.321,54.97c0.376,0.171,0.66,0.818,0.856,1.94c0.194,1.123,0.315,2.35,0.364,3.683
		c0.048,1.333,0.047,2.581-0.002,3.742c-0.051,1.162-0.123,1.848-0.218,2.056c-0.114,0.25-0.416,0.441-0.903,0.572
		c-0.488,0.13-0.855,0.189-1.103,0.179c-2.065,0.219-4.079,0.323-6.041,0.312c-1.961-0.011-3.971-0.082-6.028-0.212
		c-0.392-0.027-0.649-0.069-0.774-0.125c-0.335-0.152-0.585-0.708-0.754-1.667c-0.168-0.959-0.254-2.044-0.257-3.255
		c-0.004-1.212,0.045-2.399,0.147-3.563c0.101-1.164,0.285-2.037,0.552-2.623c0.171-0.376,0.636-0.567,1.396-0.574
		c1.867-0.006,3.746-0.034,5.633-0.082c1.887-0.049,3.75-0.208,5.589-0.48c0.204-0.008,0.481-0.008,0.831,0
		C207.958,54.88,208.196,54.913,208.321,54.97z"/>
	<path fill="#2AA4FF" d="M256.582,58.129c-0.05,0.136-0.131,0.277-0.244,0.421c-0.114,0.145-0.228,0.289-0.341,0.433
		c-0.767,0.973-1.76,2.177-2.978,3.612c-1.219,1.436-2.494,2.942-3.825,4.521c-1.332,1.579-2.637,3.123-3.911,4.629
		c-1.275,1.507-2.339,2.801-3.19,3.882c-1.335,1.694-2.695,3.104-4.08,4.233c-1.387,1.128-2.9,1.863-4.541,2.205
		c-1.643,0.342-3.406,0.208-5.292-0.402c-1.886-0.609-3.981-1.823-6.288-3.64c-4.108-3.237-6.342-6.502-6.698-9.791
		c-0.358-3.29,0.954-6.827,3.937-10.611c1.135-1.441,2.305-2.944,3.508-4.508c1.202-1.563,2.38-3.075,3.53-4.535
		c1.149-1.459,2.205-2.818,3.167-4.075c0.962-1.258,1.784-2.319,2.465-3.184c0.512-0.648,0.956-1.028,1.336-1.138
		c0.378-0.11,0.862-0.021,1.453,0.269c1.647,0.948,3.062,1.858,4.244,2.731c1.181,0.873,2.331,1.749,3.448,2.629
		c0.396,0.312,0.928,0.73,1.595,1.256c0.666,0.525,1.422,1.179,2.267,1.961c0.483,0.499,0.762,0.922,0.837,1.272
		c0.073,0.352-0.216,0.941-0.868,1.77c-2.414,3.063-4.923,6.154-7.526,9.272c-2.604,3.118-5.112,6.21-7.525,9.272
		c-0.228,0.289-0.406,0.644-0.535,1.068c-0.129,0.423,0.004,0.791,0.4,1.104c0.576,0.454,1.162,0.434,1.758-0.062
		c0.594-0.495,1.133-1.048,1.616-1.662c2.215-2.811,4.48-5.742,6.798-8.794c2.316-3.051,4.711-6.146,7.182-9.281
		c0.596-0.757,1.152-1.092,1.669-1.006c0.516,0.086,1.478,0.682,2.884,1.79c0.828,0.653,1.506,1.202,2.032,1.646
		c0.526,0.444,0.924,0.83,1.191,1.157c0.267,0.328,0.439,0.609,0.517,0.846C256.648,57.656,256.651,57.893,256.582,58.129z"/>
	<path fill="#2AA4FF" d="M277.732,85.65c-4.102,4.664-8.186,9.216-12.251,13.656c-4.065,4.439-8.225,8.848-12.477,13.225
		c-0.595,0.43-1.094,0.366-1.497-0.191c-1.21-1.673-2.363-3.289-3.46-4.845c-1.097-1.557-2.157-3.239-3.182-5.046
		c-0.087-0.277-0.129-0.531-0.125-0.759c0.004-0.23,0.202-0.543,0.595-0.939c0.281-0.317,0.545-0.578,0.792-0.785
		c0.246-0.207,0.598-0.504,1.055-0.89c-0.62-0.231-1.208-0.515-1.761-0.85c-0.555-0.335-0.871-0.559-0.952-0.67
		c-0.135-0.187-0.231-0.457-0.289-0.811c-0.059-0.354-0.034-0.654,0.071-0.9l-1.333,0.624c-0.361,0.205-0.662,0.337-0.901,0.397
		c-0.24,0.059-0.521-0.035-0.842-0.283c-0.321-0.25-0.739-0.711-1.256-1.385c-0.517-0.675-1.218-1.625-2.104-2.853
		c-1.049-1.45-1.88-2.619-2.493-3.506c-0.612-0.888-1.057-1.6-1.332-2.136c-0.274-0.538-0.401-0.928-0.379-1.17
		c0.023-0.244,0.146-0.445,0.368-0.606c0.074-0.053,0.168-0.121,0.279-0.202c0.111-0.081,0.273-0.169,0.486-0.267
		c5.465-2.31,10.969-4.505,16.512-6.588c5.543-2.083,11.13-4.085,16.763-6.005c0.276-0.087,0.538-0.078,0.784,0.028
		c0.246,0.105,0.545,0.341,0.896,0.71c0.352,0.369,0.791,0.9,1.321,1.593c0.528,0.692,1.197,1.597,2.004,2.713
		c1.129,1.562,2.044,2.867,2.747,3.917c0.701,1.049,1.214,1.896,1.538,2.539c0.323,0.644,0.508,1.133,0.553,1.469
		C277.907,85.169,277.863,85.441,277.732,85.65z M253.032,93.657c0.161,0.223,0.296,0.606,0.406,1.15
		c1.018-1.02,1.916-2.009,2.695-2.968c0.778-0.959,1.745-2.168,2.899-3.625c-1.459,0.488-2.938,1.047-4.435,1.678
		c-1.498,0.629-3.023,1.28-4.577,1.95c1.139,0.479,1.864,0.817,2.178,1.016S252.79,93.323,253.032,93.657z"/>
</g>
</svg>
