<?xml version="1.0" encoding="utf-8"?>
<!-- Generator: Adobe Illustrator 15.0.2, SVG Export Plug-In . SVG Version: 6.00 Build 0)  -->
<!DOCTYPE svg PUBLIC "-//W3C//DTD SVG 1.1//EN" "http://www.w3.org/Graphics/SVG/1.1/DTD/svg11.dtd">
<svg version="1.1" id="Layer_1" xmlns="http://www.w3.org/2000/svg" xmlns:xlink="http://www.w3.org/1999/xlink" x="0px" y="0px"
	 width="367.25px" height="90.375px" viewBox="0 0 367.25 90.375" enable-background="new 0 0 367.25 90.375" xml:space="preserve">
<g>
	<path fill-rule="evenodd" clip-rule="evenodd" fill="#DA2128" d="M58.694,37.271l15.556,0l5.119-23.459L58.694,37.271
		L58.694,37.271z M61.024,49.944l10.629,0.461l0.401-4.53H50.529l-5.561,7.512L34.693,89.249l-9.964,0.23l5.911-20.76l-18.571,20.76
		L0.75,89.249l10.512-38.441h9.549l-5.389,21.503L78.819,0.875h13.646L81.351,49.483h10.071c17.894,0,13.223,28.53-3.955,27.377
		H75.941l-2.805,12.517h-9.946l2.574-11.825l-9.004-0.461C37.483,77.091,42.755,49.483,61.024,49.944L61.024,49.944z M89.276,57.996
		l-9.112,0.23L77.57,68.235h10.641C91.833,69.157,97.854,58.688,89.276,57.996L89.276,57.996z M61.999,58.227l7.761,0.23
		l-2.123,10.47h-7.804C50.829,69.157,52.485,58.227,61.999,58.227L61.999,58.227z"/>
	<path fill-rule="evenodd" clip-rule="evenodd" fill="#DA2128" d="M328.465,36.39l1.439-7.398l6.301-0.085
		c5.369-0.847,5.848,7.626-2.521,7.626L328.465,36.39L328.465,36.39z M324.975,6.719l-8.154,38.528l10.047,0.254
		c25.539,2.712,31.973-25.109,11.02-25.278h-6.098l2.631-13.42L324.975,6.719L324.975,6.719z M356.715,6.719l-7.984,38.443
		l9.518,0.085l7.924-38.613L356.715,6.719L356.715,6.719z"/>
	<polygon fill-rule="evenodd" clip-rule="evenodd" fill="#DA2128" points="291.461,6.719 289.855,15.318 300.322,15.318 
		294.012,45.248 303.744,45.248 310.131,15.403 320.943,15.403 322.691,6.719 291.461,6.719 	"/>
	<polygon fill-rule="evenodd" clip-rule="evenodd" fill="#DA2128" points="263.799,29 275.129,28.979 271.629,45.163 
		281.316,45.078 289.578,6.719 279.83,6.719 276.773,20.362 265.76,20.447 268.365,6.719 258.785,6.719 250.502,45.078 
		260.188,44.993 263.799,29 	"/>
	<polygon fill-rule="evenodd" clip-rule="evenodd" fill="#DA2128" points="227.342,6.719 219.197,45.332 247.852,45.078 
		249.641,36.492 230.852,36.492 232.285,29.085 249.943,28.916 251.711,20.193 234.477,20.362 235.268,15.403 254.459,15.403 
		256.127,6.889 227.342,6.719 	"/>
	<polygon fill-rule="evenodd" clip-rule="evenodd" fill="#DA2128" points="187.9,6.754 179.319,45.332 188.762,45.163 
		193.004,25.574 193.127,45.163 202.123,45.163 210.268,26.506 206.67,45.163 215.867,45.163 223.896,6.973 211.207,6.973 
		200.697,30.339 200.336,6.889 187.9,6.754 	"/>
	<path fill-rule="evenodd" clip-rule="evenodd" fill="#DA2128" d="M205.602,80.624l1.436-7.449h5.84
		c8.707-0.076,3.627,8.776-2.154,7.566L205.602,80.624L205.602,80.624z M202.158,50.632l-7.975,38.807l15.773,0.075
		c21.523-0.075,21.664-25.183,7.473-24.88h-8.469l2.791-13.926L202.158,50.632L202.158,50.632z M234.098,50.708l-7.975,38.73
		l9.695-0.075l8.006-38.731L234.098,50.708L234.098,50.708z"/>
	<polygon fill-rule="evenodd" clip-rule="evenodd" fill="#DA2128" points="138.177,50.557 148.161,50.632 145.632,63.254 
		159.753,50.557 199.764,50.557 198.168,59.241 187.232,59.241 181.193,88.909 171.244,88.909 177.618,59.241 161.638,59.259 
		153.932,67.088 165.157,89.211 153.095,89.514 145.479,74.294 142.859,76.502 140.197,89.438 130.543,89.438 138.177,50.557 	"/>
	<path fill-rule="evenodd" clip-rule="evenodd" fill="#DA2128" d="M105.762,82.017l12.258-0.074l-1.444,7.571l10.124-0.075
		l8.432-38.882l-13.517,0.075L86.771,89.287l12.519,0.075L105.762,82.017L105.762,82.017z M120.023,73.091l-6.083,0.227l7.812-9
		L120.023,73.091L120.023,73.091z"/>
	<polygon fill-rule="evenodd" clip-rule="evenodd" fill="#DA2128" points="132.4,6.668 124.123,45.261 133.833,45.282 
		139.985,15.438 158.345,15.353 163.492,33.282 155.03,45.367 166.244,45.197 190.975,6.753 180.397,6.668 169.581,24.202 
		164.618,6.668 132.4,6.668 	"/>
	<path fill-rule="evenodd" clip-rule="evenodd" fill="#DA2128" d="M87.104,45.26l8.36-38.249h20.04
		c16.95-1.844,15.964,26.257-8.534,25.797h-7.839L96.428,45.03L87.104,45.26L87.104,45.26z M103.004,15.555l-1.377,8.125h8.337
		c8.164,0,10.199-8.587,2.204-8.356L103.004,15.555L103.004,15.555z"/>
	<path d="M248.205,75.745l-2.873,13.588h6.484c4.154,0,6.094-1.824,6.094-4.328c0-1.806-1.125-2.543-2.25-2.815l0.018-0.038
		c2.311-0.505,2.971-2.33,2.971-3.533c0-1.378-0.641-2.873-3.609-2.873H248.205L248.205,75.745z M250.846,78.385h2.873
		c0.873,0,1.436,0.446,1.436,1.146c0,1.223-1.281,1.495-1.922,1.495h-2.949L250.846,78.385L250.846,78.385z M249.738,83.665h2.932
		c1.107,0,1.844,0.252,1.844,1.417c0,1.262-1.281,1.611-2.115,1.611h-3.301L249.738,83.665L249.738,83.665z M270.801,82.481
		l-1.807-6.736h-3.475l3.088,9.842c-0.506,0.912-1.049,1.32-2.059,1.32c-0.465,0-1.01-0.098-1.436-0.214l-0.545,2.64
		c0.699,0.178,1.301,0.256,2,0.256c2.854,0,4.076-1.77,4.854-3.031l6.717-10.812h-3.514L270.801,82.481L270.801,82.481z
		 M281.264,81.53h-0.059l1.262-5.785h-3.203l-2.873,13.588h3.203l1.379-6.716h0.039l3.436,6.716h3.727l-4.037-7.065l6.561-6.522
		h-3.883L281.264,81.53L281.264,81.53z M292.289,75.745l-2.873,13.588h3.203l0.99-4.658h3.047c5.609,0,6.191-3.824,6.191-5.222
		c0-3.319-2.658-3.708-4.211-3.708H292.289L292.289,75.745z M294.928,78.385h2.523c1.244,0,2,0.389,2,1.65
		c0,0.951-0.562,1.999-2.775,1.999h-2.523L294.928,78.385L294.928,78.385z M309.08,75.745l-7.982,13.588h3.439l1.418-2.543h4.93
		l0.33,2.543h3.318l-2.213-13.588H309.08L309.08,75.745z M307.119,84.48l2.873-5.183l0.68,5.183H307.119L307.119,84.48z
		 M320.086,84.52l1.844-8.774h-3.203l-2.873,13.588h3.455l7.027-8.871l-1.863,8.871h3.203l2.873-13.588h-3.455L320.086,84.52
		L320.086,84.52z M334.936,83.49h4.969l-1.223,5.843h3.203l2.873-13.588h-3.203l-1.105,5.105h-4.971l1.107-5.105h-3.203
		l-2.873,13.588h3.203L334.936,83.49L334.936,83.49z M349.668,81.083l0.564-2.698h7.57l0.543-2.64h-10.754l-2.873,13.588h10.928
		l0.545-2.64h-7.707l0.621-2.97h6.678l0.523-2.641H349.668L349.668,81.083z"/>
</g>
</svg>
