<?xml version="1.0" encoding="utf-8"?>
<!-- Generator: Adobe Illustrator 15.0.2, SVG Export Plug-In . SVG Version: 6.00 Build 0)  -->
<!DOCTYPE svg PUBLIC "-//W3C//DTD SVG 1.1//EN" "http://www.w3.org/Graphics/SVG/1.1/DTD/svg11.dtd">
<svg version="1.1" id="Layer_1" xmlns="http://www.w3.org/2000/svg" xmlns:xlink="http://www.w3.org/1999/xlink" x="0px" y="0px"
	 width="615.938px" height="92.391px" viewBox="0 0 615.938 92.391" enable-background="new 0 0 615.938 92.391"
	 xml:space="preserve">
<linearGradient id="SVGID_1_" gradientUnits="userSpaceOnUse" x1="307.9692" y1="0" x2="307.9692" y2="92.3906">
	<stop  offset="0" style="stop-color:#00AB4E"/>
	<stop  offset="1" style="stop-color:#006543"/>
</linearGradient>
<rect fill="url(#SVGID_1_)" stroke="#000000" width="615.938" height="92.391"/>
<g>
	<polygon points="35.367,20.392 73.92,20.392 70.354,36.336 53.789,36.336 52.401,42.991 67.258,42.991 63.856,57.85 48.993,57.85 
		45.122,75.503 22.986,75.503 	"/>
	<path d="M113.241,47.948c1.704-7.742-2.634-11.612-8.206-11.612c-5.571,0-11.764,3.87-13.472,11.612
		c-1.854,7.739,2.634,11.606,8.205,11.606C105.344,59.555,111.533,55.688,113.241,47.948 M70.512,47.948
		c3.408-14.863,16.875-29.106,38.395-29.106c21.672,0,28.64,14.243,25.385,29.106c-3.401,14.864-16.873,29.103-38.549,29.103
		C74.225,77.051,67.107,62.812,70.512,47.948"/>
	<path d="M181.202,47.948c1.857-7.742-2.634-11.612-8.198-11.612c-5.579,0-11.771,3.87-13.476,11.612
		c-1.704,7.739,2.63,11.606,8.205,11.606C173.308,59.555,179.5,55.688,181.202,47.948 M138.634,47.948
		c3.246-14.863,16.718-29.106,38.391-29.106c21.515,0,28.64,14.243,25.236,29.106c-3.412,14.864-16.88,29.103-38.395,29.103
		C142.347,77.051,135.218,62.812,138.634,47.948"/>
	<polygon points="218.825,36.336 207.216,36.336 210.774,20.392 255.976,20.392 252.419,36.336 240.807,36.336 231.985,75.503 
		210,75.503 	"/>
	<path d="M280.131,41.29c3.868,0,5.267-1.858,5.723-3.875c0.47-1.854-0.155-3.71-4.022-3.71h-2.009l-1.702,7.585H280.131z
		 M275.952,62.191c2.169,0,5.726-0.309,6.5-4.025c0.774-3.717-2.479-4.187-4.492-4.187h-2.784l-1.863,8.212H275.952z
		 M291.894,20.392c15.79,0,15.172,9.752,14.24,14.085c-1.388,6.196-7.272,10.06-12.227,11.455v0.155
		c6.813,1.237,10.839,6.505,9.134,14.089c-1.234,5.574-6.805,15.327-22.135,15.327h-32.511l12.385-55.111H291.894z"/>
	<path d="M331.994,53.675h7.741l-0.777-13.935L331.994,53.675z M331.215,20.392h24.308l7.121,55.111h-22.6l-0.309-8.048h-13.938
		l-4.025,8.048h-22.605L331.215,20.392z"/>
	<polygon points="378.745,20.392 400.729,20.392 391.907,59.555 407.388,59.555 403.825,75.503 366.356,75.503 	"/>
	<polygon points="421.477,20.392 443.458,20.392 434.634,59.555 450.114,59.555 446.548,75.503 409.089,75.503 	"/>
	<path d="M466.526,59.716c4.959,0,9.285,2.935,8.049,8.668c-1.389,5.726-6.969,8.359-11.922,8.359c-4.797,0-9.286-2.634-7.894-8.359
		C455.997,62.65,461.728,59.716,466.526,59.716"/>
	<path d="M509.72,20.392l-7.281,32.504c-0.616,2.634-1.391,8.209,4.184,8.209c5.568,0,7.273-5.575,7.89-8.209l7.438-32.504h21.984
		l-7.124,31.888c-1.396,6.192-7.125,24.771-33.746,24.771c-26.628,0-23.843-18.579-22.447-24.771l7.121-31.888H509.72z"/>
	<path d="M563.748,53.675h7.585l-0.621-13.935L563.748,53.675z M562.97,20.392h24.156l7.117,55.111h-22.449l-0.461-8.048h-13.776
		l-4.024,8.048h-22.605L562.97,20.392z"/>
</g>
<g>
	<linearGradient id="SVGID_2_" gradientUnits="userSpaceOnUse" x1="47.7412" y1="5.5688" x2="47.7412" y2="121.0168">
		<stop  offset="0" style="stop-color:#FFFFFF"/>
		<stop  offset="0.1169" style="stop-color:#FAFAFA"/>
		<stop  offset="0.2538" style="stop-color:#ECECEC"/>
		<stop  offset="0.4008" style="stop-color:#D4D4D4"/>
		<stop  offset="0.5548" style="stop-color:#B3B3B3"/>
		<stop  offset="0.7129" style="stop-color:#8A8A8A"/>
		<stop  offset="0.7472" style="stop-color:#808080"/>
	</linearGradient>
	<polygon fill="url(#SVGID_2_)" points="34.655,19.291 73.208,19.291 69.642,35.234 53.077,35.234 51.689,41.89 66.545,41.89 
		63.145,56.749 48.281,56.749 44.41,74.401 22.274,74.401 	"/>
	<linearGradient id="SVGID_3_" gradientUnits="userSpaceOnUse" x1="101.6646" y1="5.5679" x2="101.6645" y2="121.0188">
		<stop  offset="0" style="stop-color:#FFFFFF"/>
		<stop  offset="0.1169" style="stop-color:#FAFAFA"/>
		<stop  offset="0.2538" style="stop-color:#ECECEC"/>
		<stop  offset="0.4008" style="stop-color:#D4D4D4"/>
		<stop  offset="0.5548" style="stop-color:#B3B3B3"/>
		<stop  offset="0.7129" style="stop-color:#8A8A8A"/>
		<stop  offset="0.7472" style="stop-color:#808080"/>
	</linearGradient>
	<path fill="url(#SVGID_3_)" d="M112.529,46.848c1.704-7.742-2.634-11.613-8.206-11.613c-5.571,0-11.764,3.871-13.471,11.613
		c-1.855,7.738,2.633,11.606,8.205,11.606C104.632,58.454,110.821,54.586,112.529,46.848 M69.8,46.848
		c3.408-14.863,16.876-29.105,38.395-29.105c21.672,0,28.64,14.242,25.386,29.105C130.18,61.712,116.708,75.95,95.032,75.95
		C73.512,75.95,66.395,61.712,69.8,46.848"/>
	<linearGradient id="SVGID_4_" gradientUnits="userSpaceOnUse" x1="169.7329" y1="5.5679" x2="169.7329" y2="121.0188">
		<stop  offset="0" style="stop-color:#FFFFFF"/>
		<stop  offset="0.1169" style="stop-color:#FAFAFA"/>
		<stop  offset="0.2538" style="stop-color:#ECECEC"/>
		<stop  offset="0.4008" style="stop-color:#D4D4D4"/>
		<stop  offset="0.5548" style="stop-color:#B3B3B3"/>
		<stop  offset="0.7129" style="stop-color:#8A8A8A"/>
		<stop  offset="0.7472" style="stop-color:#808080"/>
	</linearGradient>
	<path fill="url(#SVGID_4_)" d="M180.49,46.848c1.858-7.742-2.634-11.613-8.198-11.613c-5.579,0-11.771,3.871-13.476,11.613
		c-1.704,7.738,2.63,11.606,8.205,11.606C172.596,58.454,178.789,54.586,180.49,46.848 M137.922,46.848
		c3.247-14.863,16.718-29.105,38.391-29.105c21.515,0,28.64,14.242,25.235,29.105c-3.411,14.864-16.88,29.103-38.395,29.103
		C141.635,75.95,134.506,61.712,137.922,46.848"/>
	<linearGradient id="SVGID_5_" gradientUnits="userSpaceOnUse" x1="230.8833" y1="5.5688" x2="230.8833" y2="121.0168">
		<stop  offset="0" style="stop-color:#FFFFFF"/>
		<stop  offset="0.1169" style="stop-color:#FAFAFA"/>
		<stop  offset="0.2538" style="stop-color:#ECECEC"/>
		<stop  offset="0.4008" style="stop-color:#D4D4D4"/>
		<stop  offset="0.5548" style="stop-color:#B3B3B3"/>
		<stop  offset="0.7129" style="stop-color:#8A8A8A"/>
		<stop  offset="0.7472" style="stop-color:#808080"/>
	</linearGradient>
	<polygon fill="url(#SVGID_5_)" points="218.113,35.234 206.503,35.234 210.062,19.291 255.263,19.291 251.708,35.234 
		240.095,35.234 231.272,74.401 209.287,74.401 	"/>
	<linearGradient id="SVGID_6_" gradientUnits="userSpaceOnUse" x1="276.7515" y1="5.5688" x2="276.7515" y2="121.0168">
		<stop  offset="0" style="stop-color:#FFFFFF"/>
		<stop  offset="0.1169" style="stop-color:#FAFAFA"/>
		<stop  offset="0.2538" style="stop-color:#ECECEC"/>
		<stop  offset="0.4008" style="stop-color:#D4D4D4"/>
		<stop  offset="0.5548" style="stop-color:#B3B3B3"/>
		<stop  offset="0.7129" style="stop-color:#8A8A8A"/>
		<stop  offset="0.7472" style="stop-color:#808080"/>
	</linearGradient>
	<path fill="url(#SVGID_6_)" d="M279.418,40.189c3.868,0,5.267-1.859,5.723-3.875c0.47-1.855-0.154-3.71-4.021-3.71h-2.009
		l-1.701,7.585H279.418z M275.24,61.091c2.169,0,5.726-0.31,6.5-4.025c0.774-3.717-2.479-4.187-4.492-4.187h-2.784l-1.862,8.212
		H275.24z M291.183,19.291c15.79,0,15.172,9.751,14.239,14.085c-1.388,6.196-7.272,10.06-12.227,11.455v0.154
		c6.813,1.238,10.838,6.505,9.134,14.089c-1.234,5.575-6.805,15.327-22.135,15.327h-32.512l12.385-55.11H291.183z"/>
	<linearGradient id="SVGID_7_" gradientUnits="userSpaceOnUse" x1="330.1934" y1="5.5688" x2="330.1934" y2="121.0168">
		<stop  offset="0" style="stop-color:#FFFFFF"/>
		<stop  offset="0.1169" style="stop-color:#FAFAFA"/>
		<stop  offset="0.2538" style="stop-color:#ECECEC"/>
		<stop  offset="0.4008" style="stop-color:#D4D4D4"/>
		<stop  offset="0.5548" style="stop-color:#B3B3B3"/>
		<stop  offset="0.7129" style="stop-color:#8A8A8A"/>
		<stop  offset="0.7472" style="stop-color:#808080"/>
	</linearGradient>
	<path fill="url(#SVGID_7_)" d="M331.282,52.574h7.742l-0.778-13.935L331.282,52.574z M330.503,19.291h24.307l7.121,55.11h-22.599
		l-0.308-8.048h-13.938l-4.025,8.048h-22.605L330.503,19.291z"/>
	<linearGradient id="SVGID_8_" gradientUnits="userSpaceOnUse" x1="386.1602" y1="5.5688" x2="386.1602" y2="121.0168">
		<stop  offset="0" style="stop-color:#FFFFFF"/>
		<stop  offset="0.1169" style="stop-color:#FAFAFA"/>
		<stop  offset="0.2538" style="stop-color:#ECECEC"/>
		<stop  offset="0.4008" style="stop-color:#D4D4D4"/>
		<stop  offset="0.5548" style="stop-color:#B3B3B3"/>
		<stop  offset="0.7129" style="stop-color:#8A8A8A"/>
		<stop  offset="0.7472" style="stop-color:#808080"/>
	</linearGradient>
	<polygon fill="url(#SVGID_8_)" points="378.032,19.291 400.019,19.291 391.195,58.454 406.676,58.454 403.114,74.401 
		365.645,74.401 	"/>
	<linearGradient id="SVGID_9_" gradientUnits="userSpaceOnUse" x1="428.8896" y1="5.5688" x2="428.8896" y2="121.0168">
		<stop  offset="0" style="stop-color:#FFFFFF"/>
		<stop  offset="0.1169" style="stop-color:#FAFAFA"/>
		<stop  offset="0.2538" style="stop-color:#ECECEC"/>
		<stop  offset="0.4008" style="stop-color:#D4D4D4"/>
		<stop  offset="0.5548" style="stop-color:#B3B3B3"/>
		<stop  offset="0.7129" style="stop-color:#8A8A8A"/>
		<stop  offset="0.7472" style="stop-color:#808080"/>
	</linearGradient>
	<polygon fill="url(#SVGID_9_)" points="420.765,19.291 442.746,19.291 433.922,58.454 449.402,58.454 445.836,74.401 
		408.376,74.401 	"/>
	<linearGradient id="SVGID_10_" gradientUnits="userSpaceOnUse" x1="463.9336" y1="5.5723" x2="463.9336" y2="121.0183">
		<stop  offset="0" style="stop-color:#FFFFFF"/>
		<stop  offset="0.1169" style="stop-color:#FAFAFA"/>
		<stop  offset="0.2538" style="stop-color:#ECECEC"/>
		<stop  offset="0.4008" style="stop-color:#D4D4D4"/>
		<stop  offset="0.5548" style="stop-color:#B3B3B3"/>
		<stop  offset="0.7129" style="stop-color:#8A8A8A"/>
		<stop  offset="0.7472" style="stop-color:#808080"/>
	</linearGradient>
	<path fill="url(#SVGID_10_)" d="M465.815,58.615c4.958,0,9.284,2.935,8.048,8.668c-1.39,5.726-6.969,8.359-11.923,8.359
		c-4.797,0-9.285-2.634-7.893-8.359C455.284,61.55,461.015,58.615,465.815,58.615"/>
	<linearGradient id="SVGID_11_" gradientUnits="userSpaceOnUse" x1="511.1484" y1="5.5688" x2="511.1484" y2="121.0182">
		<stop  offset="0" style="stop-color:#FFFFFF"/>
		<stop  offset="0.1169" style="stop-color:#FAFAFA"/>
		<stop  offset="0.2538" style="stop-color:#ECECEC"/>
		<stop  offset="0.4008" style="stop-color:#D4D4D4"/>
		<stop  offset="0.5548" style="stop-color:#B3B3B3"/>
		<stop  offset="0.7129" style="stop-color:#8A8A8A"/>
		<stop  offset="0.7472" style="stop-color:#808080"/>
	</linearGradient>
	<path fill="url(#SVGID_11_)" d="M509.008,19.291l-7.281,32.504c-0.616,2.634-1.392,8.209,4.184,8.209
		c5.569,0,7.272-5.575,7.89-8.209l7.438-32.504h21.984l-7.124,31.887c-1.396,6.193-7.125,24.772-33.746,24.772
		c-26.628,0-23.843-18.579-22.448-24.772l7.123-31.887H509.008z"/>
	<linearGradient id="SVGID_12_" gradientUnits="userSpaceOnUse" x1="561.873" y1="5.5688" x2="561.873" y2="121.0168">
		<stop  offset="0" style="stop-color:#FFFFFF"/>
		<stop  offset="0.1169" style="stop-color:#FAFAFA"/>
		<stop  offset="0.2538" style="stop-color:#ECECEC"/>
		<stop  offset="0.4008" style="stop-color:#D4D4D4"/>
		<stop  offset="0.5548" style="stop-color:#B3B3B3"/>
		<stop  offset="0.7129" style="stop-color:#8A8A8A"/>
		<stop  offset="0.7472" style="stop-color:#808080"/>
	</linearGradient>
	<path fill="url(#SVGID_12_)" d="M563.036,52.574h7.585L570,38.64L563.036,52.574z M562.258,19.291h24.156l7.118,55.11h-22.451
		l-0.46-8.048h-13.776l-4.025,8.048h-22.605L562.258,19.291z"/>
</g>
</svg>
