<?xml version="1.0" encoding="utf-8"?>
<!-- Generator: Adobe Illustrator 15.0.2, SVG Export Plug-In . SVG Version: 6.00 Build 0)  -->
<!DOCTYPE svg PUBLIC "-//W3C//DTD SVG 1.1//EN" "http://www.w3.org/Graphics/SVG/1.1/DTD/svg11.dtd">
<svg version="1.1" id="Слой_1" xmlns="http://www.w3.org/2000/svg" xmlns:xlink="http://www.w3.org/1999/xlink" x="0px" y="0px"
	 width="524.081px" height="86.457px" viewBox="0 0 524.081 86.457" enable-background="new 0 0 524.081 86.457"
	 xml:space="preserve">
<polygon fill-rule="evenodd" clip-rule="evenodd" fill="#81DB34" points="0,0 451.058,0 401.142,86.457 0.61,86.457 0,0 "/>
<polygon fill-rule="evenodd" clip-rule="evenodd" fill="#81DB34" points="456.01,0 475.439,0 425.523,86.457 406.094,86.457 
	456.01,0 "/>
<polygon fill-rule="evenodd" clip-rule="evenodd" fill="#81DB34" points="484.974,0 499.546,0 449.63,86.457 435.058,86.457 
	484.974,0 "/>
<polygon fill-rule="evenodd" clip-rule="evenodd" fill="#81DB34" points="514.366,0 524.081,0 474.165,86.457 464.45,86.457 
	514.366,0 "/>
<path fill="#1D1D1B" d="M212.405,21.173h24.339c6.071,0,11.586,2.479,15.581,6.475c3.995,3.995,6.475,9.511,6.475,15.581l0,0
	c0,6.071-2.479,11.587-6.475,15.581c-3.995,3.995-9.51,6.475-15.581,6.475h-24.339c-6.071,0-11.586-2.479-15.581-6.475
	c-3.996-3.994-6.475-9.51-6.475-15.581l0,0c0-6.07,2.479-11.586,6.475-15.581C200.818,23.652,206.334,21.173,212.405,21.173
	L212.405,21.173z M277.668,32.375V42.63h32.265c1.404,0,2.685-0.578,3.617-1.51c0.932-0.933,1.51-2.213,1.51-3.617
	s-0.578-2.686-1.51-3.617s-2.213-1.511-3.617-1.511H277.668L277.668,32.375z M277.668,53.692v11.312h-11.062V21.362
	c14.394,0,28.875-0.049,43.326-0.049c4.457,0,8.506,1.82,11.438,4.751c2.931,2.932,4.751,6.98,4.751,11.438
	c0,4.457-1.82,8.506-4.752,11.438c-1.227,1.228-2.649,2.26-4.217,3.045l7.519,13.022H311.93l-6.533-11.315H277.668L277.668,53.692z
	 M169.444,21.313c4.458,0,8.506,1.82,11.438,4.751c2.931,2.932,4.751,6.98,4.751,11.438c0,4.457-1.82,8.506-4.751,11.438
	c-2.932,2.932-6.981,4.752-11.438,4.752H137.18v11.312h-11.062V21.291C140.558,21.291,154.985,21.313,169.444,21.313L169.444,21.313
	z M137.18,32.375V42.63h32.264c1.404,0,2.685-0.578,3.617-1.51c0.932-0.933,1.51-2.213,1.51-3.617s-0.578-2.686-1.51-3.617
	s-2.213-1.511-3.617-1.511H137.18L137.18,32.375z M365.687,32.399v32.608h-11.062V32.399h-23.783V21.338h59.182v11.062H365.687
	L365.687,32.399z M51.807,21.354v43.625H40.745V21.354H51.807L51.807,21.354z M106.184,48.69H73.36c-3.735,0-7.133-1.555-9.596-4.06
	c-2.44-2.48-3.955-5.889-3.955-9.626c0-3.736,1.514-7.146,3.954-9.626c2.463-2.504,5.86-4.059,9.597-4.059h43.159v11.062H73.36
	c-0.675,0-1.288,0.281-1.732,0.732c-0.467,0.475-0.757,1.144-0.757,1.891c0,0.748,0.291,1.417,0.757,1.892
	c0.444,0.451,1.057,0.731,1.732,0.731h32.824v0.011c3.736,0,7.133,1.555,9.596,4.059c2.44,2.48,3.955,5.89,3.955,9.626
	s-1.514,7.146-3.955,9.626c-2.463,2.504-5.86,4.059-9.596,4.059H63.025V53.946h43.159c0.675,0,1.288-0.28,1.732-0.732
	c0.467-0.474,0.757-1.143,0.757-1.891s-0.291-1.417-0.757-1.892c-0.444-0.451-1.057-0.731-1.732-0.731V48.69L106.184,48.69z
	 M236.744,32.234h-24.339c-3.018,0-5.765,1.239-7.76,3.234c-1.995,1.994-3.233,4.742-3.233,7.76l0,0
	c0,3.018,1.238,5.766,3.233,7.761c1.995,1.994,4.743,3.233,7.76,3.233h24.339c3.018,0,5.765-1.239,7.76-3.233
	c1.995-1.995,3.234-4.743,3.234-7.761l0,0c0-3.018-1.239-5.766-3.234-7.76C242.509,33.474,239.761,32.234,236.744,32.234
	L236.744,32.234z"/>
</svg>
