<?xml version="1.0" encoding="utf-8"?>
<!-- Generator: Adobe Illustrator 15.0.2, SVG Export Plug-In . SVG Version: 6.00 Build 0)  -->
<!DOCTYPE svg PUBLIC "-//W3C//DTD SVG 1.1//EN" "http://www.w3.org/Graphics/SVG/1.1/DTD/svg11.dtd">
<svg version="1.1" id="Layer_1" xmlns="http://www.w3.org/2000/svg" xmlns:xlink="http://www.w3.org/1999/xlink" x="0px" y="0px"
	 width="610px" height="209px" viewBox="0 0 610 209" enable-background="new 0 0 610 209" xml:space="preserve">
<path fill="#FFFFFF" d="M333.862,196.696c-6.134,0-11.004-1.854-14.611-5.562s-5.411-8.921-5.411-15.642
	c0-6.481,1.809-11.649,5.425-15.504s8.491-5.782,14.626-5.782c1.629,0,3.094,0.093,4.394,0.275c1.301,0.183,2.545,0.439,3.735,0.769
	c0.935,0.274,1.95,0.65,3.049,1.126c1.099,0.477,1.987,0.889,2.664,1.236v9.75h-1.043c-0.495-0.439-1.117-0.965-1.868-1.579
	c-0.751-0.613-1.603-1.213-2.554-1.799c-0.953-0.586-2.001-1.085-3.146-1.497s-2.339-0.618-3.584-0.618
	c-1.483,0-2.843,0.233-4.079,0.7c-1.235,0.468-2.412,1.277-3.529,2.432c-1.025,1.043-1.863,2.453-2.513,4.229
	c-0.65,1.776-0.975,3.872-0.975,6.289c0,2.546,0.338,4.684,1.016,6.414c0.678,1.729,1.565,3.126,2.664,4.188
	c1.062,1.025,2.248,1.767,3.557,2.225c1.31,0.458,2.614,0.687,3.914,0.687c1.355,0,2.646-0.225,3.873-0.673
	c1.227-0.449,2.261-0.948,3.104-1.497c0.915-0.567,1.721-1.145,2.417-1.73c0.695-0.586,1.3-1.107,1.812-1.565h0.934v9.613
	c-0.751,0.348-1.62,0.746-2.608,1.194c-0.989,0.449-2.006,0.829-3.049,1.14c-1.282,0.385-2.481,0.678-3.599,0.879
	S335.821,196.696,333.862,196.696z"/>
<path fill="#FFFFFF" d="M363.114,160.661h-10.163v-7.498h10.163V160.661z M362.839,195.899h-9.612v-30.844h9.612V195.899z"/>
<path fill="#FFFFFF" d="M382.01,196.504c-3.918,0-6.77-0.806-8.555-2.417c-1.786-1.611-2.679-4.248-2.679-7.91v-14.42h-3.68v-6.701
	h3.68v-8.816h9.613v8.816h9.256v6.701h-9.256v10.932c0,1.08,0.009,2.023,0.027,2.829s0.165,1.529,0.439,2.17
	c0.257,0.641,0.71,1.149,1.359,1.524c0.65,0.375,1.598,0.562,2.843,0.562c0.513,0,1.186-0.109,2.019-0.329s1.415-0.421,1.744-0.604
	h0.824v6.784c-1.044,0.274-2.151,0.489-3.323,0.646C385.15,196.426,383.713,196.504,382.01,196.504z"/>
<path fill="#FFFFFF" d="M422.357,165.056l-15.573,42.159h-10.327l4.669-12.057l-11.315-30.103h10.107l6.481,19.336l6.07-19.336
	H422.357z"/>
<path fill="#FFFFFF" d="M477.151,193.564c-1.795,0.733-4.125,1.447-6.99,2.143c-2.866,0.695-5.69,1.044-8.474,1.044
	c-6.427,0-11.549-1.854-15.367-5.562c-3.817-3.708-5.727-8.968-5.727-15.779c0-6.408,1.909-11.545,5.727-15.408
	c3.818-3.863,9.041-5.796,15.67-5.796c3.424,0,6.207,0.326,8.35,0.976c2.142,0.65,4.357,1.533,6.646,2.65v9.586h-0.934
	c-0.495-0.385-1.205-0.93-2.129-1.635c-0.925-0.704-1.826-1.305-2.705-1.799c-1.026-0.586-2.211-1.089-3.558-1.511
	c-1.346-0.421-2.77-0.632-4.271-0.632c-1.758,0-3.36,0.274-4.807,0.824c-1.446,0.549-2.737,1.392-3.872,2.526
	c-1.081,1.099-1.937,2.491-2.568,4.175c-0.632,1.686-0.947,3.645-0.947,5.878c0,4.779,1.198,8.304,3.598,10.574
	c2.398,2.271,5.676,3.406,9.833,3.406c0.365,0,0.796-0.01,1.29-0.027c0.495-0.019,0.925-0.046,1.291-0.083v-8.02h-7.938v-7.663
	h17.881V193.564z"/>
<path fill="#FFFFFF" d="M512.994,195.899h-9.613v-3.405c-1.666,1.392-3.195,2.448-4.587,3.172c-1.392,0.723-3.048,1.085-4.971,1.085
	c-3.059,0-5.443-0.966-7.155-2.897s-2.567-4.839-2.567-8.721v-20.077h9.668v15.298c0,1.594,0.041,2.894,0.123,3.9
	s0.279,1.858,0.591,2.555c0.293,0.641,0.746,1.126,1.359,1.455c0.613,0.33,1.47,0.495,2.568,0.495c0.677,0,1.479-0.165,2.403-0.495
	c0.924-0.329,1.78-0.777,2.567-1.346v-21.862h9.613V195.899z"/>
<path fill="#FFFFFF" d="M530.242,160.661h-10.163v-7.498h10.163V160.661z M529.967,195.899h-9.612v-30.844h9.612V195.899z"/>
<path fill="#FFFFFF" d="M565.371,195.899h-9.612v-3.214c-0.623,0.514-1.333,1.062-2.129,1.648c-0.797,0.586-1.497,1.025-2.102,1.318
	c-0.769,0.366-1.528,0.641-2.279,0.824c-0.751,0.183-1.648,0.274-2.691,0.274c-3.516,0-6.3-1.456-8.35-4.367
	c-2.051-2.911-3.076-6.802-3.076-11.673c0-2.691,0.348-5.026,1.043-7.004c0.696-1.978,1.657-3.698,2.885-5.163
	c1.116-1.337,2.472-2.395,4.064-3.173s3.277-1.167,5.054-1.167c1.611,0,2.935,0.169,3.969,0.508s2.238,0.865,3.612,1.579v-13.128
	h9.612V195.899z M555.759,187.385v-15.134c-0.477-0.237-1.099-0.435-1.868-0.59c-0.769-0.155-1.428-0.233-1.978-0.233
	c-2.307,0-4.042,0.806-5.205,2.417s-1.744,3.863-1.744,6.756c0,3.04,0.463,5.237,1.388,6.592c0.924,1.355,2.421,2.033,4.49,2.033
	c0.842,0,1.693-0.165,2.555-0.495C554.257,188.401,555.044,187.953,555.759,187.385z"/>
<path fill="#FFFFFF" d="M588.524,196.724c-5.823,0-10.286-1.392-13.39-4.175s-4.656-6.747-4.656-11.893
	c0-5.035,1.446-9.055,4.34-12.058s6.939-4.505,12.14-4.505c4.725,0,8.276,1.273,10.657,3.818c2.38,2.545,3.57,6.189,3.57,10.931
	v3.461h-21.066c0.092,1.429,0.394,2.623,0.906,3.584c0.513,0.962,1.19,1.727,2.033,2.294c0.823,0.567,1.785,0.975,2.884,1.222
	c1.099,0.248,2.298,0.371,3.598,0.371c1.117,0,2.216-0.123,3.296-0.371c1.08-0.247,2.069-0.571,2.967-0.975
	c0.787-0.348,1.515-0.723,2.184-1.126c0.668-0.402,1.212-0.76,1.634-1.071h1.017v7.938c-0.788,0.312-1.507,0.6-2.156,0.865
	c-0.65,0.266-1.543,0.536-2.678,0.811c-1.044,0.274-2.12,0.489-3.228,0.646C591.467,196.646,590.117,196.724,588.524,196.724z
	 M591.71,176.509c-0.055-2.032-0.526-3.58-1.414-4.642c-0.889-1.062-2.248-1.593-4.079-1.593c-1.867,0-3.328,0.559-4.381,1.675
	c-1.053,1.117-1.634,2.637-1.744,4.56H591.71z"/>
<path fill="#FFFFFF" d="M474.64,128.603c1.506,3.344,2.583,6.523,4.284,9.324c2.32,3.818,5.797,5.899,10.515,4.962
	c7.331-1.456,10.11-7.672,7.312-15.43c-2.521-6.988-6.017-14.021-6.596-21.234c-1.301-16.222-1.074-32.566-1.438-48.861
	c-0.111-4.953-4.825-10.091-9.521-10.267c-5.609-0.209-10.104,3.315-10.366,9.058c-0.599,13.126-0.836,26.271-1.064,39.41
	c-0.124,7.102-2.107,13.438-6.936,18.708c-6.936,7.571-15.753,9.375-25.08,6.426c-9.251-2.925-16.129-9.08-16.805-19.489
	c-0.731-11.274-0.604-22.603-0.979-33.903c-0.147-4.475-0.268-9.01-1.132-13.372c-0.389-1.961-2.219-4.159-4.005-5.229
	c-7.444-4.457-15.345-0.02-15.58,9.125c-0.36,13.974-0.704,28.013,0.222,41.938c1.125,16.935,9.714,29.799,24.807,37.9
	C440.031,147.198,463.633,143.123,474.64,128.603z"/>
<path fill="#FFFFFF" d="M309.854,142.497c15.653-0.083,30.035-11.527,33.983-27.995c1.808-7.539,2.177-15.436,3.019-23.189
	c1.482-13.65,7.841-20.831,21.395-23.896c6.62-1.497,10.628-6.516,9.524-11.928c-1.203-5.903-6.652-9.616-13.268-8.42
	c-17.347,3.137-30.319,12.086-35.384,29.584c-2.329,8.048-3.072,16.606-4.013,24.992c-1.432,12.774-6.271,18.9-17.06,20.601
	c-7.385,1.164-10.604,4.895-10.037,11.633C298.483,139.448,302.723,142.534,309.854,142.497z"/>
<path fill="#FFFFFF" d="M253.383,142.714c17.547-0.442,31.801-13.107,35.459-32.111c1.28-6.651,1.255-13.544,2.105-20.29
	c1.69-13.412,8.467-20.441,21.772-22.929c5.491-1.026,9.777-6.35,9.145-11.355c-0.71-5.608-6.352-10.075-12.331-9.1
	c-17.78,2.899-31.073,11.914-36.469,29.696c-2.334,7.691-3.211,15.942-3.823,24.01c-0.833,10.967-5.212,20.536-18.562,22.029
	c-6.411,0.717-9.294,5.255-8.65,11.271C242.617,139.445,247.052,142.874,253.383,142.714z"/>
<path fill="#FFFFFF" d="M378.955,117.27c-7.083-0.008-12.2,5.112-12.212,12.22c-0.013,7.33,5.432,13.076,12.225,12.904
	c6.347-0.16,12.765-6.438,12.715-12.438C391.625,122.996,385.888,117.276,378.955,117.27z"/>
<path fill="#FFFFFF" d="M6,98.5c1.979-1.671,3.745-3.744,5.982-4.927c4.244-2.243,9.125-0.866,11.832,3.237
	c1.438,2.18,2.331,4.748,3.287,7.212c5.131,13.231,17.89,20.224,31.704,17.313c12.191-2.568,21.044-15.084,20.156-28.491
	c-1.143-17.253-19.823-28.429-36.944-22.087c-1.557,0.576-3.043,1.344-4.605,1.902c-5.511,1.968-10.461,0.314-12.919-4.258
	C21.77,63.338,23,57.507,28.227,54.529c15.665-8.925,31.669-9.174,47.514-0.486c11.667,6.397,18.763,16.66,23.074,29.015
	c0.27,0.773,0.411,1.633,0.412,2.452c0.04,19.974,0.785,39.98-0.112,59.913c-1.153,25.636-20.268,42.863-46.039,43.39
	c-16.201,0.331-29.073-5.896-38.877-18.618c-2.545-3.302-3.824-7.014-1.683-11.146c3.387-6.536,11.446-7.898,16.661-2.597
	c5.322,5.41,10.806,10.162,18.746,11.5c16.11,2.715,30.476-8.666,31.075-25.024c0.103-2.813,0.015-5.635,0.015-8.04
	c-4.998,2.163-9.871,5.162-15.157,6.409c-24.012,5.664-45.976-5.826-55.673-28.578c-0.619-1.452-1.45-2.814-2.182-4.218
	C6,105.167,6,101.833,6,98.5z"/>
<path fill="#FFFFFF" d="M608,136.5c-2.845,3.736-5.957,7.511-11.19,6.719c-5.632-0.852-8.727-5.065-10.769-10.088
	c-0.605-1.489-1.19-2.986-2.069-5.196c-6.373,7.911-14.389,11.776-23.565,13.684c-23.46,4.877-46.139-7.353-54.216-29.367
	c-8.372-22.82,0.7-47.169,21.846-58.627c30.933-16.762,68.224,4.474,69.896,39.835c0.62,13.105,3.582,25.545,10.068,37.041
	C608,132.5,608,134.5,608,136.5z M549.981,121.785c16.34-0.367,27.64-11.705,27.292-27.385
	c-0.316-14.26-12.655-25.916-27.125-25.626c-15.01,0.301-26.299,12.596-26.202,28.089
	C524.022,108.877,536.605,123.063,549.981,121.785z"/>
<path fill="#FFFFFF" d="M122,3.5c4.766,2.152,7.454,5.378,7.408,11.072c-0.093,11.305,0.458,22.613,0.567,33.922
	c0.173,17.977,0.21,35.954,0.287,53.932c0.05,11.758,5.512,17.957,17.054,20.202c3.207,0.624,6.943,2.053,8.995,4.382
	c4.9,5.562,1.831,13.701-5.518,15.557c-7.136,1.802-14.003,0.104-20.22-3.302c-12.564-6.881-20.148-17.566-20.464-32.035
	c-0.673-30.779-0.688-61.572-1.04-92.358C109.003,9.085,112.206,5.789,117,3.5C118.667,3.5,120.333,3.5,122,3.5z"/>
<path fill="#FFFFFF" d="M245.266,96.155c-0.186,26.163-21.455,46.891-47.821,46.603c-26.482-0.289-46.93-21.419-46.708-48.27
	c0.215-26.158,21.501-46.923,47.87-46.696C224.824,48.017,245.456,69.4,245.266,96.155z M198.182,69.409
	c-14.336-1.935-26.551,11.262-26.876,25.815c-0.32,14.337,12.009,26.232,26.579,26.646c14.425,0.41,27.221-12.544,26.561-26.878
	C223.752,79.915,213.599,69.411,198.182,69.409z"/>
<path fill="#FFFFFF" d="M474.64,128.603c-11.007,14.521-34.608,18.596-52.361,9.066c-15.093-8.102-23.682-20.966-24.807-37.9
	c-0.926-13.926-0.582-27.965-0.222-41.938c0.235-9.145,8.136-13.582,15.58-9.125c1.786,1.069,3.616,3.268,4.005,5.229
	c0.864,4.362,0.984,8.897,1.132,13.372c0.374,11.301,0.247,22.629,0.979,33.903c0.676,10.409,7.554,16.564,16.805,19.489
	c9.327,2.949,18.145,1.146,25.08-6.426c4.828-5.271,6.812-11.606,6.936-18.708c0.229-13.14,0.466-26.284,1.064-39.41
	c0.262-5.742,4.757-9.267,10.366-9.058c4.695,0.176,9.409,5.313,9.521,10.267c0.364,16.295,0.138,32.64,1.438,48.861
	c0.579,7.213,4.074,14.246,6.596,21.234c2.798,7.758,0.019,13.974-7.312,15.43c-4.718,0.938-8.194-1.144-10.515-4.962
	C477.223,135.126,476.146,131.946,474.64,128.603z"/>
<path fill="#FFFFFF" d="M309.854,142.497c-7.131,0.037-11.37-3.049-11.839-8.619c-0.567-6.738,2.652-10.469,10.037-11.633
	c10.788-1.7,15.628-7.826,17.06-20.601c0.94-8.386,1.684-16.944,4.013-24.992c5.064-17.498,18.037-26.447,35.384-29.584
	c6.615-1.196,12.064,2.517,13.268,8.42c1.104,5.412-2.904,10.431-9.524,11.928c-13.554,3.065-19.912,10.246-21.395,23.896
	c-0.842,7.754-1.211,15.65-3.019,23.189C339.889,130.97,325.507,142.414,309.854,142.497z"/>
<path fill="#FFFFFF" d="M253.383,142.714c-6.331,0.16-10.766-3.269-11.355-8.778c-0.644-6.017,2.239-10.555,8.65-11.271
	c13.351-1.493,17.73-11.062,18.562-22.029c0.612-8.067,1.489-16.318,3.823-24.01c5.396-17.782,18.688-26.797,36.469-29.696
	c5.979-0.976,11.621,3.491,12.331,9.1c0.633,5.006-3.653,10.329-9.145,11.355c-13.306,2.487-20.082,9.517-21.772,22.929
	c-0.85,6.746-0.825,13.639-2.105,20.29C285.184,129.606,270.93,142.271,253.383,142.714z"/>
<path fill="#FFFFFF" d="M378.955,117.27c6.933,0.007,12.67,5.727,12.728,12.687c0.05,6-6.368,12.277-12.715,12.438
	c-6.793,0.172-12.237-5.574-12.225-12.904C366.755,122.382,371.872,117.262,378.955,117.27z"/>
</svg>
