<?xml version="1.0" encoding="utf-8"?>
<!-- Generator: Adobe Illustrator 21.1.0, SVG Export Plug-In . SVG Version: 6.00 Build 0)  -->
<svg version="1.1" id="Layer_1" xmlns="http://www.w3.org/2000/svg" xmlns:xlink="http://www.w3.org/1999/xlink" x="0px" y="0px"
	 viewBox="0 0 297.6 81.7" style="enable-background:new 0 0 297.6 81.7;" xml:space="preserve">
<style type="text/css">
	.st0{fill:#0066B3;}
</style>
<path class="st0" d="M91.8,48.1L81.2,17.6h-7.5l-7.5,7.4v20.8c0,14.1-8.2,22.4-23.7,22.4c-15.5,0-23.7-8.5-23.7-22.4V29.2V17.5
	l8.2,2.6l0.9,0.3v26.8c0,4.2,1.3,7.2,3.9,9.3c2.6,2.1,6.3,3.1,11.4,3.1c2.1,0,4-0.3,5.7-0.8c1.7-0.5,3.1-1.4,4.4-2.5
	c1.2-1.1,2.2-2.5,2.9-4.2c0.7-1.7,1-3.7,1-6V22.5l10.4-10.2l0.8-0.8l0.3-0.3C61.7,5.5,52.7,2,42.9,2C20.9,2,3,19.5,3,41.2
	c0,21.6,17.9,39.2,39.9,39.2c13,0,24.5-6.1,31.8-15.5v-41l14,40.9h4.5L109,23.9v40.9h8.8V17.5h-13.6L91.8,48.1z"/>
<polygon class="st0" points="154.4,17.5 154.4,37.2 135,37.2 135,17.5 126.4,17.5 126.4,64.8 135,64.8 135,44.5 154.4,44.5 
	154.4,64.8 163,64.8 163,17.5 "/>
<path d="M196.3,62.4c1.5,0,2.8-0.4,3.7-1.1c0.9-0.8,1.5-1.9,1.9-3.5V46.3c-1.2-0.6-2.8-0.8-4.7-0.8c-2.1,0-3.7,0.7-4.9,2.1
	c-1.2,1.4-1.8,3.5-1.8,6.4c0,1.3,0.1,2.4,0.3,3.4c0.2,1,0.5,1.9,1,2.7c0.5,0.7,1.1,1.3,1.8,1.7C194.3,62.2,195.2,62.4,196.3,62.4
	 M205.4,66.1c0,2.9-0.8,5-2.3,6.4c-1.6,1.4-3.9,2.1-7,2.1c-1.8,0-3.3-0.1-4.4-0.3c-1.1-0.2-2.1-0.5-2.9-0.9l1-3
	c0.7,0.3,1.5,0.5,2.3,0.8c0.9,0.2,2,0.4,3.3,0.4c1.3,0,2.3-0.1,3.1-0.3c0.8-0.2,1.5-0.6,1.9-1.1c0.5-0.5,0.8-1.2,1-2
	c0.2-0.8,0.3-1.8,0.3-2.9v-2.1h-0.2c-0.6,0.9-1.4,1.5-2.3,2c-0.9,0.5-2.2,0.7-3.7,0.7c-3.1,0-5.3-0.9-6.8-2.8
	c-1.4-1.9-2.2-4.8-2.2-8.8c0-3.8,0.9-6.7,2.8-8.7c1.9-2,4.6-3,8.2-3c1.7,0,3.2,0.1,4.4,0.4c1.2,0.3,2.3,0.6,3.3,0.9L205.4,66.1
	L205.4,66.1z"/>
<path d="M223.2,46.2c-0.9-0.3-1.8-0.4-2.6-0.4c-1.3,0-2.3,0.3-3.1,1c-0.8,0.7-1.2,1.6-1.4,2.7v15.6h-3.6V42.8h2.6l0.7,2.7h0.2
	c0.6-1,1.3-1.8,2.1-2.3c0.8-0.6,1.8-0.8,3.1-0.8c0.9,0,1.9,0.1,3,0.4L223.2,46.2z"/>
<path d="M230.5,53.9c0,1.1,0.1,2.2,0.3,3.3c0.2,1,0.6,2,1.1,2.7c0.5,0.8,1.1,1.4,1.9,1.9c0.8,0.5,1.7,0.7,2.9,0.7
	c4.1,0,6.2-2.8,6.2-8.6c0-1.2-0.1-2.3-0.3-3.3c-0.2-1-0.6-1.9-1.1-2.7c-0.5-0.8-1.1-1.4-1.9-1.9c-0.8-0.5-1.8-0.7-2.9-0.7
	C232.6,45.3,230.5,48.2,230.5,53.9 M226.7,53.9c0-3.8,0.9-6.7,2.6-8.7c1.7-2,4.2-3,7.4-3c1.7,0,3.2,0.3,4.4,0.8
	c1.3,0.6,2.3,1.3,3.1,2.4c0.8,1,1.4,2.3,1.8,3.7c0.4,1.4,0.6,3,0.6,4.8c0,3.8-0.9,6.7-2.6,8.7c-1.7,2-4.2,3-7.4,3
	c-1.7,0-3.2-0.3-4.4-0.8c-1.3-0.6-2.3-1.3-3.1-2.4c-0.8-1-1.4-2.3-1.8-3.7C226.9,57.3,226.7,55.7,226.7,53.9"/>
<path d="M255.7,42.8v12.7c0,1.2,0.1,2.2,0.2,3c0.1,0.9,0.4,1.6,0.7,2.2c0.3,0.6,0.8,1,1.4,1.3c0.6,0.3,1.3,0.4,2.2,0.4
	c0.8,0,1.6-0.1,2.2-0.4c0.6-0.3,1.2-0.6,1.7-1c0.5-0.4,0.9-1,1.3-1.5c0.4-0.6,0.7-1.2,0.9-1.9V42.8h3.6v16c0,1.1,0,2.2,0.1,3.3
	c0.1,1.1,0.2,2.2,0.4,3H268l-0.9-3.5h-0.2c-0.7,1.2-1.6,2.1-2.8,2.9c-1.2,0.8-2.7,1.2-4.5,1.2c-1.2,0-2.3-0.1-3.2-0.4
	c-0.9-0.3-1.7-0.8-2.3-1.5c-0.6-0.7-1.1-1.7-1.4-2.9c-0.3-1.2-0.5-2.7-0.5-4.6V42.8L255.7,42.8L255.7,42.8L255.7,42.8z"/>
<path d="M286.2,45.4c-1.5,0-2.8,0.4-3.7,1.2c-0.9,0.8-1.5,2-1.9,3.6v11.1c0.5,0.4,1.2,0.7,1.9,1c0.7,0.2,1.6,0.3,2.8,0.3
	c2.1,0,3.8-0.8,5-2.3c1.2-1.5,1.9-3.8,1.9-6.8c0-1.2-0.1-2.3-0.3-3.3c-0.2-1-0.6-1.8-1-2.5c-0.5-0.7-1.1-1.2-1.8-1.6
	C288.3,45.5,287.3,45.4,286.2,45.4 M277,42.8h2.5l0.7,2.7h0.2c0.7-1,1.6-1.8,2.7-2.4c1.1-0.5,2.4-0.8,3.8-0.8c3,0,5.3,0.9,6.8,2.6
	c1.5,1.8,2.2,4.6,2.2,8.6c0,1.9-0.3,3.6-0.8,5.1c-0.5,1.5-1.2,2.8-2.1,3.8c-0.9,1-2,1.9-3.3,2.4c-1.3,0.6-2.7,0.8-4.3,0.8
	c-1.1,0-2-0.1-2.7-0.2c-0.7-0.1-1.4-0.4-2.1-0.7V74H277L277,42.8L277,42.8z"/>
</svg>
